<svg width="32" height="32" viewBox="0 0 32 32" fill="none" xmlns="http://www.w3.org/2000/svg">
<path d="M27.96 21.3333H24.04C22.3467 21.3333 21.3334 22.3466 21.3334 24.0399V27.9599C21.3334 29.6532 22.3467 30.6666 24.04 30.6666H27.96C29.6534 30.6666 30.6667 29.6532 30.6667 27.9599V24.0399C30.6667 22.3466 29.6534 21.3333 27.96 21.3333ZM28.84 24.5999L25.68 28.2933C25.5467 28.4399 25.3734 28.5333 25.1734 28.5333C25.1734 28.5333 25.16 28.5333 25.1467 28.5333C24.9734 28.5333 24.7867 28.4666 24.6667 28.3333L23.2 26.8933C22.9334 26.6266 22.9334 26.1866 23.2 25.9066C23.4667 25.6399 23.9067 25.6399 24.1867 25.9066L25.1067 26.8266L27.7867 23.7066C28.0267 23.4133 28.4667 23.3733 28.76 23.6266C29.0534 23.8799 29.08 24.3199 28.84 24.5999Z" fill="#4F3DD7" fill-opacity="0.5"/>
<path d="M27.96 21.3333H24.04C22.3467 21.3333 21.3334 22.3466 21.3334 24.0399V27.9599C21.3334 29.6532 22.3467 30.6666 24.04 30.6666H27.96C29.6534 30.6666 30.6667 29.6532 30.6667 27.9599V24.0399C30.6667 22.3466 29.6534 21.3333 27.96 21.3333ZM28.84 24.5999L25.68 28.2933C25.5467 28.4399 25.3734 28.5333 25.1734 28.5333C25.1734 28.5333 25.16 28.5333 25.1467 28.5333C24.9734 28.5333 24.7867 28.4666 24.6667 28.3333L23.2 26.8933C22.9334 26.6266 22.9334 26.1866 23.2 25.9066C23.4667 25.6399 23.9067 25.6399 24.1867 25.9066L25.1067 26.8266L27.7867 23.7066C28.0267 23.4133 28.4667 23.3733 28.76 23.6266C29.0534 23.8799 29.08 24.3199 28.84 24.5999Z" fill="#4F3DD7" fill-opacity="0.5"/>
<path d="M29.2933 9.61341C28.92 5.97341 26.0266 3.08008 22.3866 2.70675C22.12 2.68008 21.8533 2.66675 21.5866 2.66675H10.4133C10.1466 2.66675 9.87996 2.68008 9.61329 2.70675C5.97329 3.08008 3.07996 5.97341 2.70663 9.61341C2.67996 9.88008 2.66663 10.1467 2.66663 10.4134V21.5868C2.66663 21.8534 2.67996 22.1201 2.70663 22.3867C3.07996 26.0268 5.97329 28.9201 9.61329 29.2934C9.87996 29.3201 10.1466 29.3334 10.4133 29.3334H18.6666C19.4 29.3334 20 28.7334 20 28.0001V24.0401C20 21.8134 21.8133 20.0001 24.04 20.0001H28C28.7333 20.0001 29.3333 19.4001 29.3333 18.6667V10.4134C29.3333 10.1467 29.32 9.88008 29.2933 9.61341ZM10.3333 18.0001C10.3333 18.5467 9.87996 19.0001 9.33329 19.0001C8.78663 19.0001 8.33329 18.5467 8.33329 18.0001V14.0001C8.33329 13.4534 8.78663 13.0001 9.33329 13.0001C9.87996 13.0001 10.3333 13.4534 10.3333 14.0001V18.0001ZM17 18.0001C17 18.5467 16.5466 19.0001 16 19.0001C15.4533 19.0001 15 18.5467 15 18.0001V14.0001C15 13.4534 15.4533 13.0001 16 13.0001C16.5466 13.0001 17 13.4534 17 14.0001V18.0001Z" fill="#FF8548"/>
</svg>
