<svg width="20" height="20" viewBox="0 0 20 20" fill="none" xmlns="http://www.w3.org/2000/svg">
<g id="vuesax/bold/clipboard-text">
<g id="clipboard-text">
<path id="Vector" d="M11.9583 1.66675H8.04167C7.17501 1.66675 6.46667 2.36675 6.46667 3.23341V4.01675C6.46667 4.88341 7.16667 5.58341 8.03334 5.58341H11.9583C12.825 5.58341 13.525 4.88341 13.525 4.01675V3.23341C13.5333 2.36675 12.825 1.66675 11.9583 1.66675Z" fill="#BFBFBF"/>
<path id="Vector_2" d="M14.3667 4.01665C14.3667 5.34165 13.2834 6.42498 11.9584 6.42498H8.0417C6.7167 6.42498 5.63337 5.34165 5.63337 4.01665C5.63337 3.54998 5.13337 3.25832 4.7167 3.47498C3.5417 4.09998 2.7417 5.34165 2.7417 6.76665V14.6083C2.7417 16.6583 4.4167 18.3333 6.4667 18.3333H13.5334C15.5834 18.3333 17.2584 16.6583 17.2584 14.6083V6.76665C17.2584 5.34165 16.4584 4.09998 15.2834 3.47498C14.8667 3.25832 14.3667 3.54998 14.3667 4.01665ZM10.3167 14.125H6.6667C6.32503 14.125 6.0417 13.8417 6.0417 13.5C6.0417 13.1583 6.32503 12.875 6.6667 12.875H10.3167C10.6584 12.875 10.9417 13.1583 10.9417 13.5C10.9417 13.8417 10.6584 14.125 10.3167 14.125ZM12.5 10.7916H6.6667C6.32503 10.7916 6.0417 10.5083 6.0417 10.1666C6.0417 9.82498 6.32503 9.54165 6.6667 9.54165H12.5C12.8417 9.54165 13.125 9.82498 13.125 10.1666C13.125 10.5083 12.8417 10.7916 12.5 10.7916Z" fill="#BFBFBF"/>
</g>
</g>
</svg>
