<svg width="97" height="36" viewBox="0 0 97 36" fill="none" xmlns="http://www.w3.org/2000/svg">
<g clip-path="url(#clip0_4013_2002)">
<rect width="97" height="36" rx="10" fill="#FFF3ED"/>
<path d="M33.1133 10.1289C34.0977 9.14453 35.6797 9.14453 36.6641 10.1289L37.1211 10.5859C38.1055 11.5703 38.1055 13.1523 37.1211 14.1367L30.1602 21.0977C29.8789 21.3789 29.4922 21.625 29.0703 21.7305L25.5547 22.75C25.2734 22.8203 24.957 22.75 24.7461 22.5039C24.5 22.293 24.4297 21.9766 24.5 21.6953L25.5195 18.1797C25.625 17.7578 25.8711 17.3711 26.1523 17.0898L33.1133 10.1289ZM35.4688 11.3242C35.1523 11.0078 34.625 11.0078 34.3086 11.3242L33.2539 12.3438L34.9062 13.9961L35.9258 12.9414C36.2422 12.625 36.2422 12.0977 35.9258 11.7812L35.4688 11.3242ZM27.1367 18.6367L26.5391 20.7109L28.6133 20.1133C28.7539 20.0781 28.8594 20.0078 28.9648 19.9023L33.7109 15.1562L32.0938 13.5391L27.3477 18.2852C27.2422 18.3906 27.1719 18.4961 27.1367 18.6367ZM27.0312 11.5C27.4883 11.5 27.875 11.8867 27.875 12.3438C27.875 12.8359 27.4883 13.1875 27.0312 13.1875H23.0938C22.2852 13.1875 21.6875 13.8203 21.6875 14.5938V24.1562C21.6875 24.9648 22.2852 25.5625 23.0938 25.5625H32.6562C33.4297 25.5625 34.0625 24.9648 34.0625 24.1562V20.2188C34.0625 19.7617 34.4141 19.375 34.9062 19.375C35.3633 19.375 35.75 19.7617 35.75 20.2188V24.1562C35.75 25.8789 34.3438 27.25 32.6562 27.25H23.0938C21.3711 27.25 20 25.8789 20 24.1562V14.5938C20 12.9062 21.3711 11.5 23.0938 11.5H27.0312Z" fill="#FF8548"/>
<path d="M49.05 24V13.2H55.95V14.6775H50.6175V17.7075H55.05V19.185H50.6175V22.5225H55.95V24H49.05ZM60.9687 24.225C60.2137 24.225 59.5612 24.0375 59.0112 23.6625C58.4662 23.2875 58.0437 22.7775 57.7437 22.1325C57.4487 21.4825 57.3012 20.7525 57.3012 19.9425C57.3012 19.1275 57.4512 18.4 57.7512 17.76C58.0512 17.115 58.4762 16.6075 59.0262 16.2375C59.5812 15.8625 60.2387 15.675 60.9987 15.675C61.7637 15.675 62.4062 15.8625 62.9262 16.2375C63.4512 16.6075 63.8462 17.115 64.1112 17.76C64.3812 18.405 64.5162 19.1325 64.5162 19.9425C64.5162 20.7525 64.3812 21.48 64.1112 22.125C63.8412 22.77 63.4437 23.2825 62.9187 23.6625C62.3937 24.0375 61.7437 24.225 60.9687 24.225ZM61.1862 22.8075C61.7012 22.8075 62.1212 22.685 62.4462 22.44C62.7712 22.195 63.0087 21.8575 63.1587 21.4275C63.3087 20.9975 63.3837 20.5025 63.3837 19.9425C63.3837 19.3825 63.3062 18.8875 63.1512 18.4575C63.0012 18.0275 62.7662 17.6925 62.4462 17.4525C62.1312 17.2125 61.7287 17.0925 61.2387 17.0925C60.7187 17.0925 60.2912 17.22 59.9562 17.475C59.6212 17.73 59.3712 18.0725 59.2062 18.5025C59.0462 18.9325 58.9662 19.4125 58.9662 19.9425C58.9662 20.4775 59.0462 20.9625 59.2062 21.3975C59.3712 21.8275 59.6162 22.17 59.9412 22.425C60.2712 22.68 60.6862 22.8075 61.1862 22.8075ZM63.3837 24V18.1725H63.2037V13.2H64.7787V24H63.3837ZM67.0271 14.5725V13.05H68.5946V14.5725H67.0271ZM67.0271 24V15.9H68.5946V24H67.0271ZM75.4819 24C74.9719 24.1 74.4719 24.1425 73.9819 24.1275C73.4919 24.1125 73.0544 24.0175 72.6694 23.8425C72.2844 23.6675 71.9944 23.3925 71.7994 23.0175C71.6244 22.6825 71.5294 22.3425 71.5144 21.9975C71.5044 21.6475 71.4994 21.2525 71.4994 20.8125V13.65H73.0744V20.7375C73.0744 21.0625 73.0769 21.345 73.0819 21.585C73.0919 21.825 73.1444 22.0275 73.2394 22.1925C73.4194 22.5025 73.7044 22.68 74.0944 22.725C74.4894 22.765 74.9519 22.7475 75.4819 22.6725V24ZM69.9469 17.16V15.9H75.4819V17.16H69.9469Z" fill="#FF8548"/>
</g>
<defs>
<clipPath id="clip0_4013_2002">
<rect width="97" height="36" fill="white"/>
</clipPath>
</defs>
</svg>
