<svg width="20" height="20" viewBox="0 0 20 20" fill="none" xmlns="http://www.w3.org/2000/svg">
<path d="M19.0909 10.9087C18.8498 10.9087 18.6186 11.0045 18.4481 11.175C18.2776 11.3454 18.1818 11.5767 18.1818 11.8178V15.6478C18.1811 16.3195 17.9139 16.9635 17.4389 17.4385C16.9639 17.9135 16.3199 18.1807 15.6482 18.1814H4.35182C3.68008 18.1807 3.03606 17.9135 2.56106 17.4385C2.08607 16.9635 1.8189 16.3195 1.81818 15.6478V11.8178C1.81818 11.5767 1.7224 11.3454 1.55192 11.175C1.38143 11.0045 1.1502 10.9087 0.909091 10.9087C0.667985 10.9087 0.436754 11.0045 0.266267 11.175C0.0957789 11.3454 0 11.5767 0 11.8178V15.6478C0.00120326 16.8016 0.460084 17.9078 1.27595 18.7237C2.09181 19.5395 3.19801 19.9984 4.35182 19.9996H15.6482C16.802 19.9984 17.9082 19.5395 18.7241 18.7237C19.5399 17.9078 19.9988 16.8016 20 15.6478V11.8178C20 11.5767 19.9042 11.3454 19.7337 11.175C19.5632 11.0045 19.332 10.9087 19.0909 10.9087Z" fill="#5D5B73"/>
<path d="M5.18811 7.00617L9.09084 3.10344V14.5453C9.09084 14.7864 9.18661 15.0176 9.3571 15.1881C9.52759 15.3586 9.75882 15.4544 9.99993 15.4544C10.241 15.4544 10.4723 15.3586 10.6428 15.1881C10.8132 15.0176 10.909 14.7864 10.909 14.5453V3.10344L14.8117 7.00617C14.9832 7.17177 15.2128 7.2634 15.4512 7.26133C15.6896 7.25926 15.9176 7.16365 16.0861 6.9951C16.2547 6.82654 16.3503 6.59853 16.3524 6.36017C16.3544 6.12181 16.2628 5.89217 16.0972 5.72072L10.6427 0.26617C10.4722 0.0957413 10.241 0 9.99993 0C9.75887 0 9.52768 0.0957413 9.3572 0.26617L3.90265 5.72072C3.73706 5.89217 3.64542 6.12181 3.6475 6.36017C3.64957 6.59853 3.74517 6.82654 3.91373 6.9951C4.08228 7.16365 4.31029 7.25926 4.54865 7.26133C4.78701 7.2634 5.01665 7.17177 5.18811 7.00617Z" fill="#5D5B73"/>
</svg>
