<svg width="32" height="32" viewBox="0 0 32 32" fill="none" xmlns="http://www.w3.org/2000/svg">
<path d="M28.8933 9.2667C28.04 6.37337 25.6266 3.96003 22.7333 3.1067C20.5333 2.4667 19.0133 2.52003 17.96 3.3067C16.6933 4.25337 16.5466 5.96003 16.5466 7.17337V10.4934C16.5466 13.7734 18.04 15.44 20.9733 15.44H24.8C26 15.44 27.72 15.2934 28.6666 14.0267C29.48 12.9867 29.5466 11.4667 28.8933 9.2667Z" fill="#4CD7F6" fill-opacity="0.5"/>
<path d="M25.2134 17.8133C24.8668 17.4133 24.3601 17.1866 23.8401 17.1866H19.0668C16.7201 17.1866 14.8134 15.28 14.8134 12.9333V8.15996C14.8134 7.63996 14.5868 7.13329 14.1868 6.78662C13.8001 6.43996 13.2668 6.27996 12.7601 6.34662C9.62677 6.74662 6.74678 8.46662 4.86678 11.0533C2.97344 13.6533 2.28011 16.8266 2.88011 20C3.74678 24.5866 7.41344 28.2533 12.0134 29.12C12.7468 29.2666 13.4801 29.3333 14.2134 29.3333C16.6268 29.3333 18.9601 28.5866 20.9468 27.1333C23.5334 25.2533 25.2534 22.3733 25.6534 19.24C25.7201 18.72 25.5601 18.2 25.2134 17.8133Z" fill="#4CD7F6"/>
</svg>
