<svg width="37" height="341" viewBox="0 0 37 341" fill="none" xmlns="http://www.w3.org/2000/svg">
<circle opacity="0.1" cx="18.5" cy="92.5" r="18.5" fill="#645D5D"/>
<path d="M27 86H23V85C23 84.2044 22.6839 83.4413 22.1213 82.8787C21.5587 82.3161 20.7956 82 20 82H18C17.2044 82 16.4413 82.3161 15.8787 82.8787C15.3161 83.4413 15 84.2044 15 85V86H11C10.7348 86 10.4804 86.1054 10.2929 86.2929C10.1054 86.4804 10 86.7348 10 87C10 87.2652 10.1054 87.5196 10.2929 87.7071C10.4804 87.8946 10.7348 88 11 88H12V99C12 99.7956 12.3161 100.559 12.8787 101.121C13.4413 101.684 14.2044 102 15 102H23C23.7956 102 24.5587 101.684 25.1213 101.121C25.6839 100.559 26 99.7956 26 99V88H27C27.2652 88 27.5196 87.8946 27.7071 87.7071C27.8946 87.5196 28 87.2652 28 87C28 86.7348 27.8946 86.4804 27.7071 86.2929C27.5196 86.1054 27.2652 86 27 86ZM17 85C17 84.7348 17.1054 84.4804 17.2929 84.2929C17.4804 84.1054 17.7348 84 18 84H20C20.2652 84 20.5196 84.1054 20.7071 84.2929C20.8946 84.4804 21 84.7348 21 85V86H17V85ZM24 99C24 99.2652 23.8946 99.5196 23.7071 99.7071C23.5196 99.8946 23.2652 100 23 100H15C14.7348 100 14.4804 99.8946 14.2929 99.7071C14.1054 99.5196 14 99.2652 14 99V88H24V99Z" fill="#FF8548"/>
<circle opacity="0.1" cx="18.5" cy="167.5" r="18.5" fill="#645D5D"/>
<path d="M27 161H23V160C23 159.204 22.6839 158.441 22.1213 157.879C21.5587 157.316 20.7956 157 20 157H18C17.2044 157 16.4413 157.316 15.8787 157.879C15.3161 158.441 15 159.204 15 160V161H11C10.7348 161 10.4804 161.105 10.2929 161.293C10.1054 161.48 10 161.735 10 162C10 162.265 10.1054 162.52 10.2929 162.707C10.4804 162.895 10.7348 163 11 163H12V174C12 174.796 12.3161 175.559 12.8787 176.121C13.4413 176.684 14.2044 177 15 177H23C23.7956 177 24.5587 176.684 25.1213 176.121C25.6839 175.559 26 174.796 26 174V163H27C27.2652 163 27.5196 162.895 27.7071 162.707C27.8946 162.52 28 162.265 28 162C28 161.735 27.8946 161.48 27.7071 161.293C27.5196 161.105 27.2652 161 27 161ZM17 160C17 159.735 17.1054 159.48 17.2929 159.293C17.4804 159.105 17.7348 159 18 159H20C20.2652 159 20.5196 159.105 20.7071 159.293C20.8946 159.48 21 159.735 21 160V161H17V160ZM24 174C24 174.265 23.8946 174.52 23.7071 174.707C23.5196 174.895 23.2652 175 23 175H15C14.7348 175 14.4804 174.895 14.2929 174.707C14.1054 174.52 14 174.265 14 174V163H24V174Z" fill="#FF8548"/>
<circle opacity="0.1" cx="18.5" cy="242.5" r="18.5" fill="#645D5D"/>
<path d="M27 236H23V235C23 234.204 22.6839 233.441 22.1213 232.879C21.5587 232.316 20.7956 232 20 232H18C17.2044 232 16.4413 232.316 15.8787 232.879C15.3161 233.441 15 234.204 15 235V236H11C10.7348 236 10.4804 236.105 10.2929 236.293C10.1054 236.48 10 236.735 10 237C10 237.265 10.1054 237.52 10.2929 237.707C10.4804 237.895 10.7348 238 11 238H12V249C12 249.796 12.3161 250.559 12.8787 251.121C13.4413 251.684 14.2044 252 15 252H23C23.7956 252 24.5587 251.684 25.1213 251.121C25.6839 250.559 26 249.796 26 249V238H27C27.2652 238 27.5196 237.895 27.7071 237.707C27.8946 237.52 28 237.265 28 237C28 236.735 27.8946 236.48 27.7071 236.293C27.5196 236.105 27.2652 236 27 236ZM17 235C17 234.735 17.1054 234.48 17.2929 234.293C17.4804 234.105 17.7348 234 18 234H20C20.2652 234 20.5196 234.105 20.7071 234.293C20.8946 234.48 21 234.735 21 235V236H17V235ZM24 249C24 249.265 23.8946 249.52 23.7071 249.707C23.5196 249.895 23.2652 250 23 250H15C14.7348 250 14.4804 249.895 14.2929 249.707C14.1054 249.52 14 249.265 14 249V238H24V249Z" fill="#FF8548"/>
<circle opacity="0.1" cx="18.5" cy="322.5" r="18.5" fill="#645D5D"/>
<path d="M27 316H23V315C23 314.204 22.6839 313.441 22.1213 312.879C21.5587 312.316 20.7956 312 20 312H18C17.2044 312 16.4413 312.316 15.8787 312.879C15.3161 313.441 15 314.204 15 315V316H11C10.7348 316 10.4804 316.105 10.2929 316.293C10.1054 316.48 10 316.735 10 317C10 317.265 10.1054 317.52 10.2929 317.707C10.4804 317.895 10.7348 318 11 318H12V329C12 329.796 12.3161 330.559 12.8787 331.121C13.4413 331.684 14.2044 332 15 332H23C23.7956 332 24.5587 331.684 25.1213 331.121C25.6839 330.559 26 329.796 26 329V318H27C27.2652 318 27.5196 317.895 27.7071 317.707C27.8946 317.52 28 317.265 28 317C28 316.735 27.8946 316.48 27.7071 316.293C27.5196 316.105 27.2652 316 27 316ZM17 315C17 314.735 17.1054 314.48 17.2929 314.293C17.4804 314.105 17.7348 314 18 314H20C20.2652 314 20.5196 314.105 20.7071 314.293C20.8946 314.48 21 314.735 21 315V316H17V315ZM24 329C24 329.265 23.8946 329.52 23.7071 329.707C23.5196 329.895 23.2652 330 23 330H15C14.7348 330 14.4804 329.895 14.2929 329.707C14.1054 329.52 14 329.265 14 329V318H24V329Z" fill="#FF8548"/>
<circle opacity="0.1" cx="18.5" cy="18.5" r="18.5" fill="#645D5D"/>
<path d="M27 12H23V11C23 10.2044 22.6839 9.44129 22.1213 8.87868C21.5587 8.31607 20.7956 8 20 8H18C17.2044 8 16.4413 8.31607 15.8787 8.87868C15.3161 9.44129 15 10.2044 15 11V12H11C10.7348 12 10.4804 12.1054 10.2929 12.2929C10.1054 12.4804 10 12.7348 10 13C10 13.2652 10.1054 13.5196 10.2929 13.7071C10.4804 13.8946 10.7348 14 11 14H12V25C12 25.7956 12.3161 26.5587 12.8787 27.1213C13.4413 27.6839 14.2044 28 15 28H23C23.7956 28 24.5587 27.6839 25.1213 27.1213C25.6839 26.5587 26 25.7956 26 25V14H27C27.2652 14 27.5196 13.8946 27.7071 13.7071C27.8946 13.5196 28 13.2652 28 13C28 12.7348 27.8946 12.4804 27.7071 12.2929C27.5196 12.1054 27.2652 12 27 12ZM17 11C17 10.7348 17.1054 10.4804 17.2929 10.2929C17.4804 10.1054 17.7348 10 18 10H20C20.2652 10 20.5196 10.1054 20.7071 10.2929C20.8946 10.4804 21 10.7348 21 11V12H17V11ZM24 25C24 25.2652 23.8946 25.5196 23.7071 25.7071C23.5196 25.8946 23.2652 26 23 26H15C14.7348 26 14.4804 25.8946 14.2929 25.7071C14.1054 25.5196 14 25.2652 14 25V14H24V25Z" fill="#FF8548"/>
</svg>
