<svg width="30" height="28" viewBox="0 0 30 28" fill="none" xmlns="http://www.w3.org/2000/svg">
<path d="M27.3423 12.1281C27.2303 8.93823 25.9385 5.95532 23.6703 3.68706C21.2928 1.30914 18.1331 0 14.7736 0C7.9885 0 2.44443 5.40059 2.20545 12.1281C1.17002 12.5883 0.445312 13.6246 0.445312 14.8291V18.1474C0.445312 19.7769 1.7709 21.1029 3.40081 21.1029C4.45543 21.1029 5.31311 20.2452 5.31311 19.1906V13.7855C5.31311 12.7953 4.55367 11.9879 3.58816 11.8919C3.94457 6.03071 8.82379 1.37082 14.7736 1.37082C17.7675 1.37082 20.5827 2.53785 22.7016 4.65669C24.6472 6.60235 25.7859 9.13837 25.9573 11.8924C24.9927 11.9892 24.2346 12.7962 24.2346 13.7855V19.1902C24.2346 20.1886 25.0059 21.001 25.9829 21.0856V22.4514C25.9829 23.9894 24.7313 25.2405 23.1932 25.2405H21.1274C21.026 24.9508 20.8669 24.6831 20.644 24.461C20.2533 24.0685 19.7324 23.8523 19.1776 23.8523H17.0483C16.7426 23.8523 16.4492 23.9172 16.1805 24.0424C15.4476 24.3792 14.9742 25.1185 14.9742 25.9259C14.9742 26.4807 15.1904 27.0016 15.582 27.3914C15.9736 27.7839 16.4945 28 17.0483 28H19.1776C20.0604 28 20.8386 27.4293 21.1288 26.6114H23.1932C25.4875 26.6114 27.3537 24.7452 27.3537 22.4514V20.8416C28.3827 20.3787 29.1019 19.346 29.1019 18.1465V14.8282C29.1019 13.6246 28.3772 12.5883 27.3423 12.1281ZM3.94183 13.7855V19.1902C3.94183 19.4886 3.69919 19.7316 3.40035 19.7316C2.52668 19.7316 1.81568 19.0206 1.81568 18.147V14.8287C1.81568 13.9545 2.52668 13.244 3.40035 13.244C3.69919 13.244 3.94183 13.4871 3.94183 13.7855ZM19.8653 26.0731C19.7972 26.3957 19.5075 26.6301 19.1772 26.6301H17.0478C16.8605 26.6301 16.6846 26.557 16.5502 26.4226C16.4177 26.2906 16.3446 26.1142 16.3446 25.9269C16.3446 25.6531 16.505 25.4032 16.7563 25.2876C16.8459 25.2456 16.9441 25.2241 17.0478 25.2241H19.1772C19.3645 25.2241 19.5404 25.2967 19.6743 25.4311C19.8068 25.5631 19.8799 25.7395 19.8799 25.9269C19.8804 25.9771 19.8749 26.0274 19.8653 26.0731ZM27.7311 18.147C27.7311 19.0206 27.0201 19.7316 26.1464 19.7316C25.8481 19.7316 25.605 19.489 25.605 19.1902V13.7855C25.605 13.4871 25.8476 13.244 26.1464 13.244C27.0201 13.244 27.7311 13.955 27.7311 14.8287V18.147Z" fill="black"/>
<path d="M19.2115 18.3832C20.8131 18.3832 22.1158 17.08 22.1158 15.4789V9.56106C22.1158 8.787 21.8134 8.05772 21.2641 7.50848C20.7149 6.95923 19.986 6.65674 19.2115 6.65674H10.335C8.7334 6.65674 7.43066 7.95948 7.43066 9.56106V15.4789C7.43066 17.0805 8.7334 18.3832 10.335 18.3832H10.3894V19.9167C10.3894 20.5016 10.738 21.0207 11.2772 21.2396C11.4513 21.3095 11.6322 21.3442 11.8114 21.3442C12.1847 21.3442 12.5484 21.1962 12.8148 20.9206L15.3659 18.3832H19.2115ZM14.6005 17.2116L11.8397 19.9574C11.8274 19.9702 11.8182 19.9798 11.7922 19.9684C11.7606 19.9556 11.7606 19.935 11.7606 19.9167V17.6978C11.7606 17.3195 11.454 17.0124 11.0752 17.0124H10.3354C9.48964 17.0124 8.80195 16.3242 8.80195 15.4789V9.56106C8.80195 8.71526 9.48964 8.02756 10.3354 8.02756H19.212C19.6205 8.02756 20.0048 8.18749 20.2954 8.47765C20.586 8.76826 20.7455 9.15301 20.7455 9.56106V15.4789C20.7455 16.3247 20.0573 17.0124 19.212 17.0124H15.084C14.9026 17.0124 14.7289 17.0841 14.6005 17.2116Z" fill="black"/>
<path d="M11.4438 11.6182C10.8864 11.6182 10.4326 12.0724 10.4326 12.6294C10.4326 13.1864 10.8868 13.6406 11.4438 13.6406C12.0018 13.6406 12.456 13.1864 12.456 12.6294C12.456 12.0724 12.0022 11.6182 11.4438 11.6182Z" fill="black"/>
<path d="M14.7729 11.6182C14.2155 11.6182 13.7617 12.0724 13.7617 12.6294C13.7617 13.1864 14.2159 13.6406 14.7729 13.6406C15.3313 13.6406 15.7851 13.1864 15.7851 12.6294C15.7851 12.0724 15.3313 11.6182 14.7729 11.6182Z" fill="black"/>
<path d="M18.102 11.6182C17.5446 11.6182 17.0908 12.0724 17.0908 12.6294C17.0908 13.1864 17.545 13.6406 18.102 13.6406C18.66 13.6406 19.1142 13.1864 19.1142 12.6294C19.1142 12.0724 18.66 11.6182 18.102 11.6182Z" fill="black"/>
</svg>
