<svg width="111" height="20" viewBox="0 0 111 20" fill="none" xmlns="http://www.w3.org/2000/svg">
<g id="Ic - Plus">
<g id="Group 239369">
<g id="Paper Plane">
<path id="Vector" d="M57.7791 7.3832L53.7002 11.4582C53.4009 11.7582 52.9306 11.8249 52.5543 11.6249L47.6288 8.99987C46.902 8.61654 46.9875 7.5832 47.7571 7.3082L61.7041 2.34987C62.4652 2.0832 63.2091 2.79987 62.9355 3.54154L57.9672 17.0915C57.6936 17.8332 56.6674 17.9332 56.2484 17.2665L54.3928 14.3082" stroke="#727272" stroke-width="1.5" stroke-linecap="round" stroke-linejoin="round"/>
</g>
<g id="Menu Icon (3 Dots Vertical)">
<path id="Vector_2" d="M100.219 5.72483C101.192 5.72483 101.98 4.95626 101.98 4.00817C101.98 3.06008 101.192 2.2915 100.219 2.2915C99.246 2.2915 98.4573 3.06008 98.4573 4.00817C98.4573 4.95626 99.246 5.72483 100.219 5.72483Z" fill="#727272" stroke="#727272" stroke-width="0.5" stroke-linecap="round" stroke-linejoin="round"/>
<path id="Vector_3" d="M100.219 11.7165C101.192 11.7165 101.98 10.948 101.98 9.99987C101.98 9.05178 101.192 8.2832 100.219 8.2832C99.246 8.2832 98.4573 9.05178 98.4573 9.99987C98.4573 10.948 99.246 11.7165 100.219 11.7165Z" fill="#727272" stroke="#727272" stroke-width="0.5" stroke-linecap="round" stroke-linejoin="round"/>
<path id="Vector_4" d="M100.219 17.7082C101.192 17.7082 101.98 16.9397 101.98 15.9916C101.98 15.0435 101.192 14.2749 100.219 14.2749C99.246 14.2749 98.4573 15.0435 98.4573 15.9916C98.4573 16.9397 99.246 17.7082 100.219 17.7082Z" fill="#727272" stroke="#727272" stroke-width="0.5" stroke-linecap="round" stroke-linejoin="round"/>
</g>
<g id="Group">
<path id="Vector_5" d="M9.86395 2.8762L9.97278 17.1244" stroke="#727272" stroke-width="1.5" stroke-linecap="round" stroke-linejoin="round"/>
<path id="Vector_6" d="M2.60828 10.1465L17.2286 10.0039" stroke="#727272" stroke-width="1.5" stroke-linecap="round" stroke-linejoin="round"/>
</g>
</g>
</g>
</svg>
