<svg width="46" height="44" viewBox="0 0 46 44" fill="none" xmlns="http://www.w3.org/2000/svg">
<rect opacity="0.1" x="0.418457" width="45.1503" height="44" rx="12" fill="#FF8548"/>
<path d="M16.432 15.0318C16.1523 15.5666 16.1523 16.2666 16.1523 17.6667V26.3334C16.1523 27.7335 16.1523 28.4336 16.432 28.9684C16.6779 29.4388 17.0704 29.8212 17.5531 30.0609C18.1018 30.3334 18.8202 30.3334 20.2569 30.3334H25.7297C27.1664 30.3334 27.8848 30.3334 28.4336 30.0609C28.9163 29.8212 29.3087 29.4388 29.5547 28.9684C29.8343 28.4336 29.8343 27.7335 29.8343 26.3334V20.1667C29.8343 19.9334 29.8343 19.8167 29.7877 19.7276C29.7467 19.6492 29.6813 19.5854 29.6008 19.5455C29.5094 19.5001 29.3896 19.5001 29.1502 19.5001H27.2689C25.3798 19.5001 23.8484 18.0077 23.8484 16.1667V14.3334C23.8484 14.1001 23.8484 13.9834 23.8018 13.8943C23.7608 13.8159 23.6954 13.7521 23.615 13.7122C23.5235 13.6667 23.4038 13.6667 23.1643 13.6667H20.2569C18.8202 13.6667 18.1018 13.6667 17.5531 13.9392C17.0704 14.1789 16.6779 14.5614 16.432 15.0318Z" fill="#FF8548"/>
<path d="M25.5587 14.256C25.5587 13.9306 25.8294 13.6667 26.1633 13.6667C26.3237 13.6667 26.4775 13.7288 26.5909 13.8393L29.6572 16.8275C29.7706 16.938 29.8343 17.0879 29.8343 17.2442C29.8343 17.5696 29.5635 17.8334 29.2296 17.8334H27.2689C26.3244 17.8334 25.5587 17.0872 25.5587 16.1667V14.256Z" fill="#FF8548"/>
</svg>
