<svg width="46" height="44" viewBox="0 0 46 44" fill="none" xmlns="http://www.w3.org/2000/svg">
<rect opacity="0.1" x="0.433228" width="45.1914" height="44" rx="12" fill="#605BFF"/>
<path d="M16.4617 15.0318C16.1819 15.5666 16.1819 16.2666 16.1819 17.6667V26.3334C16.1819 27.7335 16.1819 28.4336 16.4617 28.9684C16.7079 29.4388 17.1007 29.8212 17.5839 30.0609C18.1331 30.3334 18.8522 30.3334 20.2902 30.3334H25.7679C27.206 30.3334 27.925 30.3334 28.4743 30.0609C28.9574 29.8212 29.3502 29.4388 29.5964 28.9684C29.8763 28.4336 29.8763 27.7335 29.8763 26.3334V20.1667C29.8763 19.9334 29.8763 19.8167 29.8296 19.7276C29.7886 19.6492 29.7231 19.5854 29.6426 19.5455C29.551 19.5001 29.4312 19.5001 29.1915 19.5001H27.3086C25.4178 19.5001 23.885 18.0077 23.885 16.1667V14.3334C23.885 14.1001 23.885 13.9834 23.8383 13.8943C23.7973 13.8159 23.7318 13.7521 23.6513 13.7122C23.5598 13.6667 23.4399 13.6667 23.2002 13.6667H20.2902C18.8522 13.6667 18.1331 13.6667 17.5839 13.9392C17.1007 14.1789 16.7079 14.5614 16.4617 15.0318Z" fill="#605BFF"/>
<path d="M25.5968 14.256C25.5968 13.9306 25.8677 13.6667 26.202 13.6667C26.3625 13.6667 26.5164 13.7288 26.6299 13.8393L29.699 16.8275C29.8125 16.938 29.8763 17.0879 29.8763 17.2442C29.8763 17.5696 29.6053 17.8334 29.271 17.8334H27.3086C26.3632 17.8334 25.5968 17.0872 25.5968 16.1667V14.256Z" fill="#605BFF"/>
</svg>
