<svg width="44" height="44" viewBox="0 0 44 44" fill="none" xmlns="http://www.w3.org/2000/svg">
<rect opacity="0.1" width="44" height="44" rx="12" fill="#4CD7F6"/>
<path d="M15.6058 15.0318C15.3333 15.5666 15.3333 16.2666 15.3333 17.6667V26.3334C15.3333 27.7335 15.3333 28.4336 15.6058 28.9684C15.8455 29.4388 16.228 29.8212 16.6984 30.0609C17.2331 30.3334 17.9332 30.3334 19.3333 30.3334H24.6667C26.0668 30.3334 26.7669 30.3334 27.3017 30.0609C27.7721 29.8212 28.1545 29.4388 28.3942 28.9684C28.6667 28.4336 28.6667 27.7335 28.6667 26.3334V20.1667C28.6667 19.9334 28.6667 19.8167 28.6213 19.7276C28.5813 19.6492 28.5176 19.5854 28.4392 19.5455C28.35 19.5001 28.2334 19.5001 28 19.5001H26.1667C24.3257 19.5001 22.8333 18.0077 22.8333 16.1667V14.3334C22.8333 14.1001 22.8333 13.9834 22.7879 13.8943C22.748 13.8159 22.6842 13.7521 22.6058 13.7122C22.5167 13.6667 22.4 13.6667 22.1667 13.6667H19.3333C17.9332 13.6667 17.2331 13.6667 16.6984 13.9392C16.228 14.1789 15.8455 14.5614 15.6058 15.0318Z" fill="#4CD7F6"/>
<path d="M24.5 14.256C24.5 13.9306 24.7638 13.6667 25.0893 13.6667C25.2455 13.6667 25.3954 13.7288 25.5059 13.8393L28.4941 16.8275C28.6046 16.938 28.6667 17.0879 28.6667 17.2442C28.6667 17.5696 28.4028 17.8334 28.0774 17.8334H26.1667C25.2462 17.8334 24.5 17.0872 24.5 16.1667V14.256Z" fill="#4CD7F6"/>
</svg>
