<svg width="21" height="24" viewBox="0 0 21 24" fill="none" xmlns="http://www.w3.org/2000/svg">
<path d="M15.5822 22.875C15.5822 23.1734 15.4636 23.4595 15.2527 23.6705C15.0417 23.8815 14.7555 24 14.4572 24H3.85156C2.85734 23.9989 1.90417 23.6034 1.20115 22.9004C0.498126 22.1974 0.102679 21.2442 0.101562 20.25V3.75C0.102679 2.75578 0.498126 1.8026 1.20115 1.09958C1.90417 0.396563 2.85734 0.00111661 3.85156 0L14.4572 0C14.7555 0 15.0417 0.118526 15.2527 0.329505C15.4636 0.540483 15.5822 0.826631 15.5822 1.125C15.5822 1.42337 15.4636 1.70952 15.2527 1.9205C15.0417 2.13147 14.7555 2.25 14.4572 2.25H3.85156C3.45387 2.25043 3.07259 2.40861 2.79138 2.68982C2.51017 2.97103 2.352 3.35231 2.35156 3.75V20.25C2.35198 20.6477 2.51016 21.029 2.79137 21.3102C3.07258 21.5914 3.45387 21.7496 3.85156 21.75H14.4572C14.7555 21.75 15.0417 21.8685 15.2527 22.0795C15.4636 22.2905 15.5822 22.5766 15.5822 22.875ZM20.6706 11.2045L15.3245 5.85834C15.2204 5.75196 15.0963 5.66728 14.9593 5.60919C14.8223 5.55111 14.6752 5.52078 14.5264 5.51995C14.3776 5.51913 14.2301 5.54783 14.0925 5.60439C13.9549 5.66096 13.8298 5.74426 13.7246 5.84949C13.6194 5.95471 13.5361 6.07975 13.4796 6.21739C13.423 6.35502 13.3943 6.5025 13.3952 6.6513C13.396 6.80009 13.4264 6.94724 13.4845 7.08422C13.5426 7.22121 13.6273 7.3453 13.7337 7.44933L17.1591 10.875H8.30277C8.0044 10.875 7.71825 10.9935 7.50727 11.2045C7.29629 11.4155 7.17777 11.7016 7.17777 12C7.17777 12.2984 7.29629 12.5845 7.50727 12.7955C7.71825 13.0065 8.0044 13.125 8.30277 13.125H17.1591L13.7335 16.5506C13.6285 16.655 13.5452 16.779 13.4883 16.9156C13.4314 17.0523 13.402 17.1988 13.4018 17.3468C13.4016 17.4947 13.4306 17.6413 13.4871 17.7781C13.5437 17.9149 13.6267 18.0391 13.7313 18.1438C13.836 18.2484 13.9602 18.3314 14.097 18.3879C14.2338 18.4445 14.3803 18.4735 14.5283 18.4733C14.6763 18.4731 14.8228 18.4437 14.9594 18.3868C15.096 18.3299 15.2201 18.2465 15.3245 18.1416L20.6706 12.7955C20.8816 12.5845 21.0001 12.2984 21.0001 12C21.0001 11.7017 20.8816 11.4155 20.6706 11.2045Z" fill="#0C063A"/>
</svg>
