<svg width="15" height="4" viewBox="0 0 15 4" fill="none" xmlns="http://www.w3.org/2000/svg">
<g id="Menu" opacity="0.3">
<path id="Vector" d="M14.4853 0.69027C13.799 0.00757312 12.6864 0.00757311 12.0001 0.69027C11.3138 1.37297 11.3138 2.47984 12.0001 3.16254C12.6864 3.84523 13.799 3.84523 14.4853 3.16254C15.1716 2.47987 15.1716 1.37299 14.4853 0.69027Z" fill="#0C063A"/>
<path id="Vector_2" d="M9.21345 0.69027C8.52718 0.00757312 7.41452 0.00757311 6.72825 0.69027C6.04199 1.37297 6.04199 2.47984 6.72825 3.16254C7.41452 3.84523 8.52718 3.84523 9.21345 3.16254C9.89972 2.47987 9.89972 1.37299 9.21345 0.69027Z" fill="#0C063A"/>
<path id="Vector_3" d="M3.9416 0.69027C3.25533 0.00757312 2.14267 0.00757311 1.4564 0.69027C0.77013 1.37297 0.77013 2.47984 1.4564 3.16254C2.14267 3.84523 3.25533 3.84523 3.9416 3.16254C4.62787 2.47987 4.62787 1.37299 3.9416 0.69027Z" fill="#0C063A"/>
</g>
</svg>
