<svg width="72" height="72" viewBox="0 0 72 72" fill="none" xmlns="http://www.w3.org/2000/svg">
<g clip-path="url(#clip0_4118_1592)">
<path d="M36 0.00146484C16.1198 0.00146484 0 16.1181 0 35.9999C0 55.8816 16.1182 71.9983 36 71.9983C55.8833 71.9983 72 55.8816 72 35.9999C72 16.1181 55.8833 0.00146484 36 0.00146484ZM36 10.7654C42.5782 10.7654 47.9088 16.0976 47.9088 22.6726C47.9088 29.2493 42.5782 34.5799 36 34.5799C29.4249 34.5799 24.0944 29.2493 24.0944 22.6726C24.0944 16.0976 29.4249 10.7654 36 10.7654ZM35.9921 62.5864C29.4313 62.5864 23.4223 60.197 18.7875 56.2422C17.6584 55.2792 17.0069 53.8671 17.0069 52.3854C17.0069 45.717 22.4039 40.3801 29.0739 40.3801H42.9293C49.6008 40.3801 54.9772 45.717 54.9772 52.3854C54.9772 53.8686 54.3289 55.2776 53.1983 56.2406C48.565 60.197 42.5545 62.5864 35.9921 62.5864Z" fill="black"/>
</g>
<defs>
<clipPath id="clip0_4118_1592">
<rect width="72" height="72" fill="white"/>
</clipPath>
</defs>
</svg>
