<svg width="279" height="303" viewBox="0 0 279 303" fill="none" xmlns="http://www.w3.org/2000/svg">
<g filter="url(#filter0_d_4371_2667)">
<rect x="29" y="6" width="221" height="245" rx="15" fill="white"/>
</g>
<path d="M94.4571 36.353C94.3851 36.479 94.3071 36.572 94.2231 36.632C94.1451 36.686 94.0461 36.713 93.9261 36.713C93.8001 36.713 93.6621 36.668 93.5121 36.578C93.3681 36.482 93.1941 36.377 92.9901 36.263C92.7861 36.149 92.5461 36.047 92.2701 35.957C92.0001 35.861 91.6791 35.813 91.3071 35.813C90.9711 35.813 90.6771 35.855 90.4251 35.939C90.1731 36.017 89.9601 36.128 89.7861 36.272C89.6181 36.416 89.4921 36.59 89.4081 36.794C89.3241 36.992 89.2821 37.211 89.2821 37.451C89.2821 37.757 89.3661 38.012 89.5341 38.216C89.7081 38.42 89.9361 38.594 90.2181 38.738C90.5001 38.882 90.8211 39.011 91.1811 39.125C91.5411 39.239 91.9101 39.362 92.2881 39.494C92.6661 39.62 93.0351 39.77 93.3951 39.944C93.7551 40.112 94.0761 40.328 94.3581 40.592C94.6401 40.85 94.8651 41.168 95.0331 41.546C95.2071 41.924 95.2941 42.383 95.2941 42.923C95.2941 43.511 95.1921 44.063 94.9881 44.579C94.7901 45.089 94.4961 45.536 94.1061 45.92C93.7221 46.298 93.2511 46.598 92.6931 46.82C92.1351 47.036 91.4961 47.144 90.7761 47.144C90.3621 47.144 89.9541 47.102 89.5521 47.018C89.1501 46.94 88.7631 46.826 88.3911 46.676C88.0251 46.526 87.6801 46.346 87.3561 46.136C87.0321 45.926 86.7441 45.692 86.4921 45.434L87.2031 44.273C87.2631 44.189 87.3411 44.12 87.4371 44.066C87.5331 44.006 87.6351 43.976 87.7431 43.976C87.8931 43.976 88.0551 44.039 88.2291 44.165C88.4031 44.285 88.6101 44.42 88.8501 44.57C89.0901 44.72 89.3691 44.858 89.6871 44.984C90.0111 45.104 90.3981 45.164 90.8481 45.164C91.5381 45.164 92.0721 45.002 92.4501 44.678C92.8281 44.348 93.0171 43.877 93.0171 43.265C93.0171 42.923 92.9301 42.644 92.7561 42.428C92.5881 42.212 92.3631 42.032 92.0811 41.888C91.7991 41.738 91.4781 41.612 91.1181 41.51C90.7581 41.408 90.3921 41.297 90.0201 41.177C89.6481 41.057 89.2821 40.913 88.9221 40.745C88.5621 40.577 88.2411 40.358 87.9591 40.088C87.6771 39.818 87.4491 39.482 87.2751 39.08C87.1071 38.672 87.0231 38.171 87.0231 37.577C87.0231 37.103 87.1161 36.641 87.3021 36.191C87.4941 35.741 87.7701 35.342 88.1301 34.994C88.4901 34.646 88.9341 34.367 89.4621 34.157C89.9901 33.947 90.5961 33.842 91.2801 33.842C92.0481 33.842 92.7561 33.962 93.4041 34.202C94.0521 34.442 94.6041 34.778 95.0601 35.21L94.4571 36.353ZM99.7287 47.144C98.9247 47.144 98.3067 46.919 97.8747 46.469C97.4487 46.013 97.2357 45.386 97.2357 44.588V39.431H96.2907C96.1707 39.431 96.0687 39.392 95.9847 39.314C95.9007 39.236 95.8587 39.119 95.8587 38.963V38.081L97.3437 37.838L97.8117 35.318C97.8417 35.198 97.8987 35.105 97.9827 35.039C98.0667 34.973 98.1747 34.94 98.3067 34.94H99.4587V37.847H101.925V39.431H99.4587V44.435C99.4587 44.723 99.5277 44.948 99.6657 45.11C99.8097 45.272 100.005 45.353 100.251 45.353C100.389 45.353 100.503 45.338 100.593 45.308C100.689 45.272 100.77 45.236 100.836 45.2C100.908 45.164 100.971 45.131 101.025 45.101C101.079 45.065 101.133 45.047 101.187 45.047C101.253 45.047 101.307 45.065 101.349 45.101C101.391 45.131 101.436 45.179 101.484 45.245L102.15 46.325C101.826 46.595 101.454 46.799 101.034 46.937C100.614 47.075 100.179 47.144 99.7287 47.144ZM108.226 43.058C107.584 43.088 107.044 43.145 106.606 43.229C106.168 43.307 105.817 43.409 105.553 43.535C105.289 43.661 105.1 43.808 104.986 43.976C104.872 44.144 104.815 44.327 104.815 44.525C104.815 44.915 104.929 45.194 105.157 45.362C105.391 45.53 105.694 45.614 106.066 45.614C106.522 45.614 106.915 45.533 107.245 45.371C107.581 45.203 107.908 44.951 108.226 44.615V43.058ZM103.132 39.053C104.194 38.081 105.472 37.595 106.966 37.595C107.506 37.595 107.989 37.685 108.415 37.865C108.841 38.039 109.201 38.285 109.495 38.603C109.789 38.915 110.011 39.29 110.161 39.728C110.317 40.166 110.395 40.646 110.395 41.168V47H109.387C109.177 47 109.015 46.97 108.901 46.91C108.787 46.844 108.697 46.715 108.631 46.523L108.433 45.857C108.199 46.067 107.971 46.253 107.749 46.415C107.527 46.571 107.296 46.703 107.056 46.811C106.816 46.919 106.558 47 106.282 47.054C106.012 47.114 105.712 47.144 105.382 47.144C104.992 47.144 104.632 47.093 104.302 46.991C103.972 46.883 103.687 46.724 103.447 46.514C103.207 46.304 103.021 46.043 102.889 45.731C102.757 45.419 102.691 45.056 102.691 44.642C102.691 44.408 102.73 44.177 102.808 43.949C102.886 43.715 103.012 43.493 103.186 43.283C103.366 43.073 103.597 42.875 103.879 42.689C104.161 42.503 104.506 42.341 104.914 42.203C105.328 42.065 105.808 41.954 106.354 41.87C106.9 41.78 107.524 41.726 108.226 41.708V41.168C108.226 40.55 108.094 40.094 107.83 39.8C107.566 39.5 107.185 39.35 106.687 39.35C106.327 39.35 106.027 39.392 105.787 39.476C105.553 39.56 105.346 39.656 105.166 39.764C104.986 39.866 104.821 39.959 104.671 40.043C104.527 40.127 104.365 40.169 104.185 40.169C104.029 40.169 103.897 40.13 103.789 40.052C103.681 39.968 103.594 39.872 103.528 39.764L103.132 39.053ZM115.444 47.144C114.64 47.144 114.022 46.919 113.59 46.469C113.164 46.013 112.951 45.386 112.951 44.588V39.431H112.006C111.886 39.431 111.784 39.392 111.7 39.314C111.616 39.236 111.574 39.119 111.574 38.963V38.081L113.059 37.838L113.527 35.318C113.557 35.198 113.614 35.105 113.698 35.039C113.782 34.973 113.89 34.94 114.022 34.94H115.174V37.847H117.64V39.431H115.174V44.435C115.174 44.723 115.243 44.948 115.381 45.11C115.525 45.272 115.72 45.353 115.966 45.353C116.104 45.353 116.218 45.338 116.308 45.308C116.404 45.272 116.485 45.236 116.551 45.2C116.623 45.164 116.686 45.131 116.74 45.101C116.794 45.065 116.848 45.047 116.902 45.047C116.968 45.047 117.022 45.065 117.064 45.101C117.106 45.131 117.151 45.179 117.199 45.245L117.865 46.325C117.541 46.595 117.169 46.799 116.749 46.937C116.329 47.075 115.894 47.144 115.444 47.144ZM132.755 47H130.532V39.431H126.248V44.435C126.248 44.723 126.317 44.948 126.455 45.11C126.599 45.272 126.794 45.353 127.04 45.353C127.178 45.353 127.292 45.338 127.382 45.308C127.478 45.272 127.559 45.236 127.625 45.2C127.697 45.164 127.76 45.131 127.814 45.101C127.868 45.065 127.922 45.047 127.976 45.047C128.042 45.047 128.096 45.065 128.138 45.101C128.18 45.131 128.225 45.179 128.273 45.245L128.939 46.325C128.615 46.595 128.243 46.799 127.823 46.937C127.403 47.075 126.968 47.144 126.518 47.144C125.714 47.144 125.096 46.919 124.664 46.469C124.238 46.013 124.025 45.386 124.025 44.588V39.431H123.08C122.96 39.431 122.858 39.392 122.774 39.314C122.69 39.236 122.648 39.119 122.648 38.963V38.081L124.133 37.829L124.601 35.318C124.631 35.198 124.688 35.105 124.772 35.039C124.856 34.973 124.964 34.94 125.096 34.94H126.248V37.847H132.755V47ZM133.142 35.039C133.142 35.231 133.103 35.414 133.025 35.588C132.947 35.756 132.842 35.903 132.71 36.029C132.584 36.155 132.431 36.257 132.251 36.335C132.077 36.407 131.891 36.443 131.693 36.443C131.501 36.443 131.321 36.407 131.153 36.335C130.985 36.257 130.838 36.155 130.712 36.029C130.586 35.903 130.484 35.756 130.406 35.588C130.334 35.414 130.298 35.231 130.298 35.039C130.298 34.841 130.334 34.658 130.406 34.49C130.484 34.316 130.586 34.166 130.712 34.04C130.838 33.908 130.985 33.806 131.153 33.734C131.321 33.656 131.501 33.617 131.693 33.617C131.891 33.617 132.077 33.656 132.251 33.734C132.431 33.806 132.584 33.908 132.71 34.04C132.842 34.166 132.947 34.316 133.025 34.49C133.103 34.658 133.142 34.841 133.142 35.039ZM138.102 47.144C137.298 47.144 136.68 46.919 136.248 46.469C135.822 46.013 135.609 45.386 135.609 44.588V39.431H134.664C134.544 39.431 134.442 39.392 134.358 39.314C134.274 39.236 134.232 39.119 134.232 38.963V38.081L135.717 37.838L136.185 35.318C136.215 35.198 136.272 35.105 136.356 35.039C136.44 34.973 136.548 34.94 136.68 34.94H137.832V37.847H140.298V39.431H137.832V44.435C137.832 44.723 137.901 44.948 138.039 45.11C138.183 45.272 138.378 45.353 138.624 45.353C138.762 45.353 138.876 45.338 138.966 45.308C139.062 45.272 139.143 45.236 139.209 45.2C139.281 45.164 139.344 45.131 139.398 45.101C139.452 45.065 139.506 45.047 139.56 45.047C139.626 45.047 139.68 45.065 139.722 45.101C139.764 45.131 139.809 45.179 139.857 45.245L140.523 46.325C140.199 46.595 139.827 46.799 139.407 46.937C138.987 47.075 138.552 47.144 138.102 47.144ZM143.971 33.626V47H141.748V33.626H143.971ZM152.135 41.321C152.135 41.033 152.093 40.763 152.009 40.511C151.931 40.253 151.811 40.028 151.649 39.836C151.487 39.644 151.28 39.494 151.028 39.386C150.782 39.272 150.494 39.215 150.164 39.215C149.522 39.215 149.015 39.398 148.643 39.764C148.277 40.13 148.043 40.649 147.941 41.321H152.135ZM147.896 42.662C147.932 43.136 148.016 43.547 148.148 43.895C148.28 44.237 148.454 44.522 148.67 44.75C148.886 44.972 149.141 45.14 149.435 45.254C149.735 45.362 150.065 45.416 150.425 45.416C150.785 45.416 151.094 45.374 151.352 45.29C151.616 45.206 151.844 45.113 152.036 45.011C152.234 44.909 152.405 44.816 152.549 44.732C152.699 44.648 152.843 44.606 152.981 44.606C153.167 44.606 153.305 44.675 153.395 44.813L154.034 45.623C153.788 45.911 153.512 46.154 153.206 46.352C152.9 46.544 152.579 46.7 152.243 46.82C151.913 46.934 151.574 47.015 151.226 47.063C150.884 47.111 150.551 47.135 150.227 47.135C149.585 47.135 148.988 47.03 148.436 46.82C147.884 46.604 147.404 46.289 146.996 45.875C146.588 45.455 146.267 44.939 146.033 44.327C145.799 43.709 145.682 42.995 145.682 42.185C145.682 41.555 145.784 40.964 145.988 40.412C146.192 39.854 146.483 39.371 146.861 38.963C147.245 38.549 147.71 38.222 148.256 37.982C148.808 37.742 149.429 37.622 150.119 37.622C150.701 37.622 151.238 37.715 151.73 37.901C152.222 38.087 152.645 38.36 152.999 38.72C153.353 39.074 153.629 39.512 153.827 40.034C154.031 40.55 154.133 41.141 154.133 41.807C154.133 42.143 154.097 42.371 154.025 42.491C153.953 42.605 153.815 42.662 153.611 42.662H147.896ZM162.401 38.756C162.761 38.42 163.157 38.147 163.589 37.937C164.021 37.727 164.528 37.622 165.11 37.622C165.614 37.622 166.061 37.709 166.451 37.883C166.841 38.051 167.165 38.291 167.423 38.603C167.687 38.909 167.885 39.278 168.017 39.71C168.155 40.136 168.224 40.607 168.224 41.123V47H166.001V41.123C166.001 40.559 165.872 40.124 165.614 39.818C165.356 39.506 164.963 39.35 164.435 39.35C164.051 39.35 163.691 39.437 163.355 39.611C163.019 39.785 162.701 40.022 162.401 40.322V47H160.178V33.626H162.401V38.756ZM176.287 41.321C176.287 41.033 176.245 40.763 176.161 40.511C176.083 40.253 175.963 40.028 175.801 39.836C175.639 39.644 175.432 39.494 175.18 39.386C174.934 39.272 174.646 39.215 174.316 39.215C173.674 39.215 173.167 39.398 172.795 39.764C172.429 40.13 172.195 40.649 172.093 41.321H176.287ZM172.048 42.662C172.084 43.136 172.168 43.547 172.3 43.895C172.432 44.237 172.606 44.522 172.822 44.75C173.038 44.972 173.293 45.14 173.587 45.254C173.887 45.362 174.217 45.416 174.577 45.416C174.937 45.416 175.246 45.374 175.504 45.29C175.768 45.206 175.996 45.113 176.188 45.011C176.386 44.909 176.557 44.816 176.701 44.732C176.851 44.648 176.995 44.606 177.133 44.606C177.319 44.606 177.457 44.675 177.547 44.813L178.186 45.623C177.94 45.911 177.664 46.154 177.358 46.352C177.052 46.544 176.731 46.7 176.395 46.82C176.065 46.934 175.726 47.015 175.378 47.063C175.036 47.111 174.703 47.135 174.379 47.135C173.737 47.135 173.14 47.03 172.588 46.82C172.036 46.604 171.556 46.289 171.148 45.875C170.74 45.455 170.419 44.939 170.185 44.327C169.951 43.709 169.834 42.995 169.834 42.185C169.834 41.555 169.936 40.964 170.14 40.412C170.344 39.854 170.635 39.371 171.013 38.963C171.397 38.549 171.862 38.222 172.408 37.982C172.96 37.742 173.581 37.622 174.271 37.622C174.853 37.622 175.39 37.715 175.882 37.901C176.374 38.087 176.797 38.36 177.151 38.72C177.505 39.074 177.781 39.512 177.979 40.034C178.183 40.55 178.285 41.141 178.285 41.807C178.285 42.143 178.249 42.371 178.177 42.491C178.105 42.605 177.967 42.662 177.763 42.662H172.048ZM182.05 39.368C182.338 38.816 182.68 38.384 183.076 38.072C183.472 37.754 183.94 37.595 184.48 37.595C184.906 37.595 185.248 37.688 185.506 37.874L185.362 39.539C185.332 39.647 185.287 39.725 185.227 39.773C185.173 39.815 185.098 39.836 185.002 39.836C184.912 39.836 184.777 39.821 184.597 39.791C184.423 39.761 184.252 39.746 184.084 39.746C183.838 39.746 183.619 39.782 183.427 39.854C183.235 39.926 183.061 40.031 182.905 40.169C182.755 40.301 182.62 40.463 182.5 40.655C182.386 40.847 182.278 41.066 182.176 41.312V47H179.953V37.766H181.258C181.486 37.766 181.645 37.808 181.735 37.892C181.825 37.97 181.885 38.114 181.915 38.324L182.05 39.368ZM192.354 41.321C192.354 41.033 192.312 40.763 192.228 40.511C192.15 40.253 192.03 40.028 191.868 39.836C191.706 39.644 191.499 39.494 191.247 39.386C191.001 39.272 190.713 39.215 190.383 39.215C189.741 39.215 189.234 39.398 188.862 39.764C188.496 40.13 188.262 40.649 188.16 41.321H192.354ZM188.115 42.662C188.151 43.136 188.235 43.547 188.367 43.895C188.499 44.237 188.673 44.522 188.889 44.75C189.105 44.972 189.36 45.14 189.654 45.254C189.954 45.362 190.284 45.416 190.644 45.416C191.004 45.416 191.313 45.374 191.571 45.29C191.835 45.206 192.063 45.113 192.255 45.011C192.453 44.909 192.624 44.816 192.768 44.732C192.918 44.648 193.062 44.606 193.2 44.606C193.386 44.606 193.524 44.675 193.614 44.813L194.253 45.623C194.007 45.911 193.731 46.154 193.425 46.352C193.119 46.544 192.798 46.7 192.462 46.82C192.132 46.934 191.793 47.015 191.445 47.063C191.103 47.111 190.77 47.135 190.446 47.135C189.804 47.135 189.207 47.03 188.655 46.82C188.103 46.604 187.623 46.289 187.215 45.875C186.807 45.455 186.486 44.939 186.252 44.327C186.018 43.709 185.901 42.995 185.901 42.185C185.901 41.555 186.003 40.964 186.207 40.412C186.411 39.854 186.702 39.371 187.08 38.963C187.464 38.549 187.929 38.222 188.475 37.982C189.027 37.742 189.648 37.622 190.338 37.622C190.92 37.622 191.457 37.715 191.949 37.901C192.441 38.087 192.864 38.36 193.218 38.72C193.572 39.074 193.848 39.512 194.046 40.034C194.25 40.55 194.352 41.141 194.352 41.807C194.352 42.143 194.316 42.371 194.244 42.491C194.172 42.605 194.034 42.662 193.83 42.662H188.115Z" fill="#161A41" fill-opacity="0.78"/>
<path d="M197.242 197.68C207.597 186.437 214.444 172.416 216.943 157.336C219.443 142.257 217.486 126.776 211.312 112.793C205.138 98.8107 195.017 86.9345 182.189 78.6223C169.362 70.3101 154.387 65.9236 139.102 66.001C123.817 66.0784 108.888 70.6165 96.1454 79.0582C83.403 87.4999 73.4023 99.4781 67.3706 113.523C61.3389 127.567 59.5386 143.067 62.1907 158.12C64.8427 173.174 71.8318 187.125 82.3001 198.263L139.5 144.5L197.242 197.68Z" fill="#F2F3F7"/>
<path d="M82.1574 198.11C74.1886 189.587 68.2201 179.394 64.6864 168.273C61.1526 157.153 60.1424 145.384 61.7293 133.824C63.3162 122.264 67.4602 111.203 73.8598 101.446C80.2594 91.6895 88.7537 83.4819 98.7245 77.4209C108.695 71.3599 119.892 67.5979 131.5 66.4087C143.107 65.2195 154.834 66.633 165.827 70.5464C176.82 74.4597 186.802 80.7744 195.047 89.031C203.292 97.2877 209.593 107.279 213.49 118.277L139.5 144.5L82.1574 198.11Z" fill="#6976EB"/>
<circle cx="140" cy="145" r="70" fill="white"/>
<path d="M83.5988 213.216C83.5988 214.224 83.4894 215.101 83.2708 215.848C83.0574 216.589 82.7588 217.203 82.3748 217.688C81.9961 218.173 81.5454 218.536 81.0228 218.776C80.5054 219.011 79.9454 219.128 79.3428 219.128C78.7401 219.128 78.1801 219.011 77.6628 218.776C77.1508 218.536 76.7054 218.173 76.3268 217.688C75.9481 217.203 75.6521 216.589 75.4388 215.848C75.2254 215.101 75.1188 214.224 75.1188 213.216C75.1188 212.203 75.2254 211.325 75.4388 210.584C75.6521 209.843 75.9481 209.229 76.3268 208.744C76.7054 208.259 77.1508 207.899 77.6628 207.664C78.1801 207.424 78.7401 207.304 79.3428 207.304C79.9454 207.304 80.5054 207.424 81.0228 207.664C81.5454 207.899 81.9961 208.259 82.3748 208.744C82.7588 209.229 83.0574 209.843 83.2708 210.584C83.4894 211.325 83.5988 212.203 83.5988 213.216ZM81.5588 213.216C81.5588 212.379 81.4974 211.685 81.3748 211.136C81.2521 210.587 81.0868 210.149 80.8788 209.824C80.6761 209.499 80.4414 209.272 80.1748 209.144C79.9081 209.011 79.6308 208.944 79.3428 208.944C79.0601 208.944 78.7854 209.011 78.5188 209.144C78.2574 209.272 78.0254 209.499 77.8228 209.824C77.6201 210.149 77.4574 210.587 77.3348 211.136C77.2174 211.685 77.1588 212.379 77.1588 213.216C77.1588 214.053 77.2174 214.747 77.3348 215.296C77.4574 215.845 77.6201 216.283 77.8228 216.608C78.0254 216.933 78.2574 217.163 78.5188 217.296C78.7854 217.424 79.0601 217.488 79.3428 217.488C79.6308 217.488 79.9081 217.424 80.1748 217.296C80.4414 217.163 80.6761 216.933 80.8788 216.608C81.0868 216.283 81.2521 215.845 81.3748 215.296C81.4974 214.747 81.5588 214.053 81.5588 213.216ZM92.88 213.216C92.88 214.224 92.7707 215.101 92.552 215.848C92.3387 216.589 92.04 217.203 91.656 217.688C91.2773 218.173 90.8267 218.536 90.304 218.776C89.7867 219.011 89.2267 219.128 88.624 219.128C88.0213 219.128 87.4613 219.011 86.944 218.776C86.432 218.536 85.9867 218.173 85.608 217.688C85.2293 217.203 84.9333 216.589 84.72 215.848C84.5067 215.101 84.4 214.224 84.4 213.216C84.4 212.203 84.5067 211.325 84.72 210.584C84.9333 209.843 85.2293 209.229 85.608 208.744C85.9867 208.259 86.432 207.899 86.944 207.664C87.4613 207.424 88.0213 207.304 88.624 207.304C89.2267 207.304 89.7867 207.424 90.304 207.664C90.8267 207.899 91.2773 208.259 91.656 208.744C92.04 209.229 92.3387 209.843 92.552 210.584C92.7707 211.325 92.88 212.203 92.88 213.216ZM90.84 213.216C90.84 212.379 90.7787 211.685 90.656 211.136C90.5333 210.587 90.368 210.149 90.16 209.824C89.9573 209.499 89.7227 209.272 89.456 209.144C89.1893 209.011 88.912 208.944 88.624 208.944C88.3413 208.944 88.0667 209.011 87.8 209.144C87.5387 209.272 87.3067 209.499 87.104 209.824C86.9013 210.149 86.7387 210.587 86.616 211.136C86.4987 211.685 86.44 212.379 86.44 213.216C86.44 214.053 86.4987 214.747 86.616 215.296C86.7387 215.845 86.9013 216.283 87.104 216.608C87.3067 216.933 87.5387 217.163 87.8 217.296C88.0667 217.424 88.3413 217.488 88.624 217.488C88.912 217.488 89.1893 217.424 89.456 217.296C89.7227 217.163 89.9573 216.933 90.16 216.608C90.368 216.283 90.5333 215.845 90.656 215.296C90.7787 214.747 90.84 214.053 90.84 213.216Z" fill="#161A41" fill-opacity="0.3"/>
<path d="M185.358 217.52V219H178.958V217.52H181.302V210.776C181.302 210.509 181.31 210.235 181.326 209.952L179.662 211.344C179.566 211.419 179.47 211.467 179.374 211.488C179.283 211.504 179.195 211.504 179.11 211.488C179.03 211.472 178.958 211.445 178.894 211.408C178.83 211.365 178.782 211.32 178.75 211.272L178.126 210.416L181.654 207.416H183.278V217.52H185.358ZM195.239 213.216C195.239 214.224 195.13 215.101 194.911 215.848C194.698 216.589 194.399 217.203 194.015 217.688C193.637 218.173 193.186 218.536 192.663 218.776C192.146 219.011 191.586 219.128 190.983 219.128C190.381 219.128 189.821 219.011 189.303 218.776C188.791 218.536 188.346 218.173 187.967 217.688C187.589 217.203 187.293 216.589 187.079 215.848C186.866 215.101 186.759 214.224 186.759 213.216C186.759 212.203 186.866 211.325 187.079 210.584C187.293 209.843 187.589 209.229 187.967 208.744C188.346 208.259 188.791 207.899 189.303 207.664C189.821 207.424 190.381 207.304 190.983 207.304C191.586 207.304 192.146 207.424 192.663 207.664C193.186 207.899 193.637 208.259 194.015 208.744C194.399 209.229 194.698 209.843 194.911 210.584C195.13 211.325 195.239 212.203 195.239 213.216ZM193.199 213.216C193.199 212.379 193.138 211.685 193.015 211.136C192.893 210.587 192.727 210.149 192.519 209.824C192.317 209.499 192.082 209.272 191.815 209.144C191.549 209.011 191.271 208.944 190.983 208.944C190.701 208.944 190.426 209.011 190.159 209.144C189.898 209.272 189.666 209.499 189.463 209.824C189.261 210.149 189.098 210.587 188.975 211.136C188.858 211.685 188.799 212.379 188.799 213.216C188.799 214.053 188.858 214.747 188.975 215.296C189.098 215.845 189.261 216.283 189.463 216.608C189.666 216.933 189.898 217.163 190.159 217.296C190.426 217.424 190.701 217.488 190.983 217.488C191.271 217.488 191.549 217.424 191.815 217.296C192.082 217.163 192.317 216.933 192.519 216.608C192.727 216.283 192.893 215.845 193.015 215.296C193.138 214.747 193.199 214.053 193.199 213.216ZM204.521 213.216C204.521 214.224 204.411 215.101 204.193 215.848C203.979 216.589 203.681 217.203 203.297 217.688C202.918 218.173 202.467 218.536 201.945 218.776C201.427 219.011 200.867 219.128 200.265 219.128C199.662 219.128 199.102 219.011 198.585 218.776C198.073 218.536 197.627 218.173 197.249 217.688C196.87 217.203 196.574 216.589 196.361 215.848C196.147 215.101 196.041 214.224 196.041 213.216C196.041 212.203 196.147 211.325 196.361 210.584C196.574 209.843 196.87 209.229 197.249 208.744C197.627 208.259 198.073 207.899 198.585 207.664C199.102 207.424 199.662 207.304 200.265 207.304C200.867 207.304 201.427 207.424 201.945 207.664C202.467 207.899 202.918 208.259 203.297 208.744C203.681 209.229 203.979 209.843 204.193 210.584C204.411 211.325 204.521 212.203 204.521 213.216ZM202.481 213.216C202.481 212.379 202.419 211.685 202.297 211.136C202.174 210.587 202.009 210.149 201.801 209.824C201.598 209.499 201.363 209.272 201.097 209.144C200.83 209.011 200.553 208.944 200.265 208.944C199.982 208.944 199.707 209.011 199.441 209.144C199.179 209.272 198.947 209.499 198.745 209.824C198.542 210.149 198.379 210.587 198.257 211.136C198.139 211.685 198.081 212.379 198.081 213.216C198.081 214.053 198.139 214.747 198.257 215.296C198.379 215.845 198.542 216.283 198.745 216.608C198.947 216.933 199.179 217.163 199.441 217.296C199.707 217.424 199.982 217.488 200.265 217.488C200.553 217.488 200.83 217.424 201.097 217.296C201.363 217.163 201.598 216.933 201.801 216.608C202.009 216.283 202.174 215.845 202.297 215.296C202.419 214.747 202.481 214.053 202.481 213.216Z" fill="#161A41" fill-opacity="0.3"/>
<path d="M118.357 150.888C119.125 150.888 119.819 150.765 120.437 150.52C121.067 150.275 121.6 149.933 122.037 149.496C122.485 149.059 122.827 148.541 123.061 147.944C123.307 147.347 123.429 146.696 123.429 145.992C123.429 145.245 123.312 144.573 123.077 143.976C122.843 143.368 122.507 142.856 122.069 142.44C121.643 142.013 121.131 141.688 120.533 141.464C119.936 141.24 119.28 141.128 118.565 141.128C117.797 141.128 117.104 141.261 116.485 141.528C115.867 141.784 115.339 142.136 114.901 142.584C114.475 143.021 114.144 143.533 113.909 144.12C113.685 144.696 113.573 145.299 113.573 145.928C113.573 146.664 113.68 147.336 113.893 147.944C114.107 148.552 114.416 149.075 114.821 149.512C115.237 149.949 115.739 150.291 116.325 150.536C116.923 150.771 117.6 150.888 118.357 150.888ZM116.693 138.664C116.491 138.92 116.293 139.171 116.101 139.416C115.92 139.651 115.744 139.885 115.573 140.12C116.117 139.747 116.715 139.459 117.365 139.256C118.016 139.053 118.725 138.952 119.493 138.952C120.421 138.952 121.296 139.107 122.117 139.416C122.939 139.715 123.653 140.157 124.261 140.744C124.88 141.32 125.371 142.035 125.733 142.888C126.096 143.731 126.277 144.696 126.277 145.784C126.277 146.84 126.085 147.821 125.701 148.728C125.317 149.635 124.779 150.424 124.085 151.096C123.403 151.768 122.576 152.296 121.605 152.68C120.645 153.064 119.584 153.256 118.421 153.256C117.269 153.256 116.224 153.075 115.285 152.712C114.347 152.339 113.547 151.816 112.885 151.144C112.235 150.461 111.728 149.64 111.365 148.68C111.013 147.709 110.837 146.627 110.837 145.432C110.837 144.429 111.056 143.363 111.493 142.232C111.941 141.091 112.651 139.875 113.621 138.584L119.445 130.76C119.595 130.568 119.797 130.408 120.053 130.28C120.32 130.141 120.624 130.072 120.965 130.072H123.493L116.693 138.664ZM136.952 150.984C137.699 150.984 138.365 150.883 138.952 150.68C139.549 150.467 140.051 150.173 140.456 149.8C140.872 149.416 141.187 148.963 141.4 148.44C141.624 147.907 141.736 147.32 141.736 146.68C141.736 145.891 141.603 145.219 141.336 144.664C141.08 144.099 140.728 143.64 140.28 143.288C139.843 142.936 139.336 142.68 138.76 142.52C138.184 142.349 137.581 142.264 136.952 142.264C136.323 142.264 135.72 142.349 135.144 142.52C134.568 142.68 134.056 142.936 133.608 143.288C133.171 143.64 132.819 144.099 132.552 144.664C132.296 145.219 132.168 145.891 132.168 146.68C132.168 147.32 132.275 147.907 132.488 148.44C132.712 148.963 133.027 149.416 133.432 149.8C133.848 150.173 134.349 150.467 134.936 150.68C135.533 150.883 136.205 150.984 136.952 150.984ZM136.952 132.024C136.269 132.024 135.667 132.125 135.144 132.328C134.632 132.531 134.2 132.808 133.848 133.16C133.507 133.512 133.245 133.923 133.064 134.392C132.893 134.861 132.808 135.363 132.808 135.896C132.808 136.419 132.883 136.925 133.032 137.416C133.181 137.907 133.421 138.344 133.752 138.728C134.083 139.101 134.509 139.405 135.032 139.64C135.565 139.864 136.205 139.976 136.952 139.976C137.699 139.976 138.333 139.864 138.856 139.64C139.389 139.405 139.821 139.101 140.152 138.728C140.483 138.344 140.723 137.907 140.872 137.416C141.021 136.925 141.096 136.419 141.096 135.896C141.096 135.363 141.005 134.861 140.824 134.392C140.653 133.923 140.392 133.512 140.04 133.16C139.699 132.808 139.267 132.531 138.744 132.328C138.232 132.125 137.635 132.024 136.952 132.024ZM140.232 141.048C141.661 141.453 142.76 142.131 143.528 143.08C144.296 144.029 144.68 145.245 144.68 146.728C144.68 147.731 144.488 148.637 144.104 149.448C143.731 150.248 143.203 150.931 142.52 151.496C141.848 152.061 141.037 152.499 140.088 152.808C139.139 153.107 138.093 153.256 136.952 153.256C135.811 153.256 134.765 153.107 133.816 152.808C132.867 152.499 132.051 152.061 131.368 151.496C130.685 150.931 130.157 150.248 129.784 149.448C129.411 148.637 129.224 147.731 129.224 146.728C129.224 145.245 129.608 144.029 130.376 143.08C131.144 142.131 132.243 141.453 133.672 141.048C132.467 140.6 131.555 139.933 130.936 139.048C130.328 138.152 130.024 137.085 130.024 135.848C130.024 135.005 130.189 134.216 130.52 133.48C130.851 132.744 131.32 132.104 131.928 131.56C132.536 131.016 133.261 130.589 134.104 130.28C134.957 129.971 135.907 129.816 136.952 129.816C137.987 129.816 138.931 129.971 139.784 130.28C140.637 130.589 141.368 131.016 141.976 131.56C142.584 132.104 143.053 132.744 143.384 133.48C143.715 134.216 143.88 135.005 143.88 135.848C143.88 137.085 143.571 138.152 142.952 139.048C142.344 139.933 141.437 140.6 140.232 141.048ZM157.786 135.608C157.786 136.504 157.648 137.309 157.37 138.024C157.093 138.728 156.72 139.325 156.25 139.816C155.792 140.296 155.253 140.664 154.634 140.92C154.026 141.176 153.381 141.304 152.698 141.304C151.984 141.304 151.317 141.176 150.698 140.92C150.08 140.664 149.541 140.296 149.082 139.816C148.634 139.325 148.282 138.728 148.026 138.024C147.77 137.309 147.642 136.504 147.642 135.608C147.642 134.691 147.77 133.875 148.026 133.16C148.282 132.445 148.634 131.843 149.082 131.352C149.541 130.861 150.08 130.488 150.698 130.232C151.317 129.976 151.984 129.848 152.698 129.848C153.424 129.848 154.096 129.976 154.714 130.232C155.333 130.488 155.872 130.861 156.33 131.352C156.789 131.843 157.146 132.445 157.402 133.16C157.658 133.875 157.786 134.691 157.786 135.608ZM155.578 135.608C155.578 134.904 155.504 134.307 155.354 133.816C155.205 133.325 154.997 132.925 154.73 132.616C154.474 132.296 154.17 132.067 153.818 131.928C153.466 131.789 153.093 131.72 152.698 131.72C152.304 131.72 151.936 131.789 151.594 131.928C151.253 132.067 150.954 132.296 150.698 132.616C150.442 132.925 150.24 133.325 150.09 133.816C149.941 134.307 149.866 134.904 149.866 135.608C149.866 136.301 149.941 136.893 150.09 137.384C150.24 137.864 150.442 138.259 150.698 138.568C150.954 138.867 151.253 139.085 151.594 139.224C151.936 139.352 152.304 139.416 152.698 139.416C153.093 139.416 153.466 139.352 153.818 139.224C154.17 139.085 154.474 138.867 154.73 138.568C154.997 138.259 155.205 137.864 155.354 137.384C155.504 136.893 155.578 136.301 155.578 135.608ZM165.898 130.552C166.005 130.424 166.128 130.312 166.266 130.216C166.416 130.12 166.613 130.072 166.858 130.072H168.922L152.154 152.536C152.058 152.675 151.936 152.787 151.786 152.872C151.637 152.957 151.456 153 151.242 153H149.146L165.898 130.552ZM170.474 147.592C170.474 148.488 170.336 149.288 170.058 149.992C169.781 150.696 169.408 151.293 168.938 151.784C168.48 152.264 167.941 152.632 167.322 152.888C166.714 153.144 166.069 153.272 165.386 153.272C164.661 153.272 163.989 153.144 163.37 152.888C162.762 152.632 162.229 152.264 161.77 151.784C161.322 151.293 160.97 150.696 160.714 149.992C160.458 149.288 160.33 148.488 160.33 147.592C160.33 146.675 160.458 145.859 160.714 145.144C160.97 144.419 161.322 143.811 161.77 143.32C162.229 142.829 162.762 142.456 163.37 142.2C163.989 141.944 164.661 141.816 165.386 141.816C166.101 141.816 166.768 141.944 167.386 142.2C168.016 142.456 168.554 142.829 169.002 143.32C169.461 143.811 169.818 144.419 170.074 145.144C170.341 145.859 170.474 146.675 170.474 147.592ZM168.266 147.592C168.266 146.888 168.192 146.291 168.042 145.8C167.893 145.299 167.685 144.893 167.418 144.584C167.162 144.275 166.858 144.051 166.506 143.912C166.154 143.773 165.781 143.704 165.386 143.704C164.992 143.704 164.618 143.773 164.266 143.912C163.925 144.051 163.626 144.275 163.37 144.584C163.114 144.893 162.912 145.299 162.762 145.8C162.624 146.291 162.554 146.888 162.554 147.592C162.554 148.285 162.624 148.872 162.762 149.352C162.912 149.832 163.114 150.227 163.37 150.536C163.626 150.835 163.925 151.053 164.266 151.192C164.618 151.32 164.992 151.384 165.386 151.384C165.781 151.384 166.154 151.32 166.506 151.192C166.858 151.053 167.162 150.835 167.418 150.536C167.685 150.227 167.893 149.832 168.042 149.352C168.192 148.872 168.266 148.285 168.266 147.592Z" fill="#161A41" fill-opacity="0.78"/>
<defs>
<filter id="filter0_d_4371_2667" x="0.4" y="0.4" width="278.2" height="302.2" filterUnits="userSpaceOnUse" color-interpolation-filters="sRGB">
<feFlood flood-opacity="0" result="BackgroundImageFix"/>
<feColorMatrix in="SourceAlpha" type="matrix" values="0 0 0 0 0 0 0 0 0 0 0 0 0 0 0 0 0 0 127 0" result="hardAlpha"/>
<feOffset dy="23"/>
<feGaussianBlur stdDeviation="14.3"/>
<feComposite in2="hardAlpha" operator="out"/>
<feColorMatrix type="matrix" values="0 0 0 0 0 0 0 0 0 0 0 0 0 0 0 0 0 0 0.03 0"/>
<feBlend mode="normal" in2="BackgroundImageFix" result="effect1_dropShadow_4371_2667"/>
<feBlend mode="normal" in="SourceGraphic" in2="effect1_dropShadow_4371_2667" result="shape"/>
</filter>
</defs>
</svg>
