<svg width="157" height="157" viewBox="0 0 157 157" fill="none" xmlns="http://www.w3.org/2000/svg">
<path d="M136.242 131.68C146.597 120.437 153.444 106.416 155.943 91.3363C158.443 76.2571 156.486 60.7761 150.312 46.7934C144.138 32.8107 134.017 20.9345 121.189 12.6223C108.362 4.31011 93.3871 -0.0764305 78.1023 0.00100744C62.8175 0.0784454 47.8878 4.61649 35.1454 13.0582C22.403 21.4999 12.4023 33.4781 6.37057 47.5227C0.338868 61.5672 -1.46142 77.0672 1.19065 92.1204C3.84272 107.174 10.8318 121.125 21.3001 132.263L78.5 78.5L136.242 131.68Z" fill="#F2F3F7"/>
<path d="M21.1574 132.11C13.1886 123.587 7.22015 113.394 3.6864 102.273C0.152646 91.1529 -0.857553 79.3844 0.729306 67.8244C2.31616 56.2643 6.46016 45.2034 12.8598 35.4464C19.2594 25.6895 27.7537 17.4819 37.7245 11.4209C47.6953 5.35989 58.892 1.59793 70.4997 0.40874C82.1074 -0.780452 93.8342 0.633034 104.827 4.54635C115.82 8.45967 125.802 14.7744 134.047 23.031C142.292 31.2877 148.593 41.2785 152.49 52.2767L78.5 78.5L21.1574 132.11Z" fill="#6976EB"/>
<circle cx="79" cy="79" r="70" fill="white"/>
<path d="M22.5988 147.216C22.5988 148.224 22.4894 149.101 22.2708 149.848C22.0574 150.589 21.7588 151.203 21.3748 151.688C20.9961 152.173 20.5454 152.536 20.0228 152.776C19.5054 153.011 18.9454 153.128 18.3428 153.128C17.7401 153.128 17.1801 153.011 16.6628 152.776C16.1508 152.536 15.7054 152.173 15.3268 151.688C14.9481 151.203 14.6521 150.589 14.4388 149.848C14.2254 149.101 14.1188 148.224 14.1188 147.216C14.1188 146.203 14.2254 145.325 14.4388 144.584C14.6521 143.843 14.9481 143.229 15.3268 142.744C15.7054 142.259 16.1508 141.899 16.6628 141.664C17.1801 141.424 17.7401 141.304 18.3428 141.304C18.9454 141.304 19.5054 141.424 20.0228 141.664C20.5454 141.899 20.9961 142.259 21.3748 142.744C21.7588 143.229 22.0574 143.843 22.2708 144.584C22.4894 145.325 22.5988 146.203 22.5988 147.216ZM20.5588 147.216C20.5588 146.379 20.4974 145.685 20.3748 145.136C20.2521 144.587 20.0868 144.149 19.8788 143.824C19.6761 143.499 19.4414 143.272 19.1748 143.144C18.9081 143.011 18.6308 142.944 18.3428 142.944C18.0601 142.944 17.7854 143.011 17.5188 143.144C17.2574 143.272 17.0254 143.499 16.8228 143.824C16.6201 144.149 16.4574 144.587 16.3348 145.136C16.2174 145.685 16.1588 146.379 16.1588 147.216C16.1588 148.053 16.2174 148.747 16.3348 149.296C16.4574 149.845 16.6201 150.283 16.8228 150.608C17.0254 150.933 17.2574 151.163 17.5188 151.296C17.7854 151.424 18.0601 151.488 18.3428 151.488C18.6308 151.488 18.9081 151.424 19.1748 151.296C19.4414 151.163 19.6761 150.933 19.8788 150.608C20.0868 150.283 20.2521 149.845 20.3748 149.296C20.4974 148.747 20.5588 148.053 20.5588 147.216ZM31.88 147.216C31.88 148.224 31.7707 149.101 31.552 149.848C31.3387 150.589 31.04 151.203 30.656 151.688C30.2773 152.173 29.8267 152.536 29.304 152.776C28.7867 153.011 28.2267 153.128 27.624 153.128C27.0213 153.128 26.4613 153.011 25.944 152.776C25.432 152.536 24.9867 152.173 24.608 151.688C24.2293 151.203 23.9333 150.589 23.72 149.848C23.5067 149.101 23.4 148.224 23.4 147.216C23.4 146.203 23.5067 145.325 23.72 144.584C23.9333 143.843 24.2293 143.229 24.608 142.744C24.9867 142.259 25.432 141.899 25.944 141.664C26.4613 141.424 27.0213 141.304 27.624 141.304C28.2267 141.304 28.7867 141.424 29.304 141.664C29.8267 141.899 30.2773 142.259 30.656 142.744C31.04 143.229 31.3387 143.843 31.552 144.584C31.7707 145.325 31.88 146.203 31.88 147.216ZM29.84 147.216C29.84 146.379 29.7787 145.685 29.656 145.136C29.5333 144.587 29.368 144.149 29.16 143.824C28.9573 143.499 28.7227 143.272 28.456 143.144C28.1893 143.011 27.912 142.944 27.624 142.944C27.3413 142.944 27.0667 143.011 26.8 143.144C26.5387 143.272 26.3067 143.499 26.104 143.824C25.9013 144.149 25.7387 144.587 25.616 145.136C25.4987 145.685 25.44 146.379 25.44 147.216C25.44 148.053 25.4987 148.747 25.616 149.296C25.7387 149.845 25.9013 150.283 26.104 150.608C26.3067 150.933 26.5387 151.163 26.8 151.296C27.0667 151.424 27.3413 151.488 27.624 151.488C27.912 151.488 28.1893 151.424 28.456 151.296C28.7227 151.163 28.9573 150.933 29.16 150.608C29.368 150.283 29.5333 149.845 29.656 149.296C29.7787 148.747 29.84 148.053 29.84 147.216Z" fill="#161A41" fill-opacity="0.3"/>
<path d="M124.358 151.52V153H117.958V151.52H120.302V144.776C120.302 144.509 120.31 144.235 120.326 143.952L118.662 145.344C118.566 145.419 118.47 145.467 118.374 145.488C118.283 145.504 118.195 145.504 118.11 145.488C118.03 145.472 117.958 145.445 117.894 145.408C117.83 145.365 117.782 145.32 117.75 145.272L117.126 144.416L120.654 141.416H122.278V151.52H124.358ZM134.239 147.216C134.239 148.224 134.13 149.101 133.911 149.848C133.698 150.589 133.399 151.203 133.015 151.688C132.637 152.173 132.186 152.536 131.663 152.776C131.146 153.011 130.586 153.128 129.983 153.128C129.381 153.128 128.821 153.011 128.303 152.776C127.791 152.536 127.346 152.173 126.967 151.688C126.589 151.203 126.293 150.589 126.079 149.848C125.866 149.101 125.759 148.224 125.759 147.216C125.759 146.203 125.866 145.325 126.079 144.584C126.293 143.843 126.589 143.229 126.967 142.744C127.346 142.259 127.791 141.899 128.303 141.664C128.821 141.424 129.381 141.304 129.983 141.304C130.586 141.304 131.146 141.424 131.663 141.664C132.186 141.899 132.637 142.259 133.015 142.744C133.399 143.229 133.698 143.843 133.911 144.584C134.13 145.325 134.239 146.203 134.239 147.216ZM132.199 147.216C132.199 146.379 132.138 145.685 132.015 145.136C131.893 144.587 131.727 144.149 131.519 143.824C131.317 143.499 131.082 143.272 130.815 143.144C130.549 143.011 130.271 142.944 129.983 142.944C129.701 142.944 129.426 143.011 129.159 143.144C128.898 143.272 128.666 143.499 128.463 143.824C128.261 144.149 128.098 144.587 127.975 145.136C127.858 145.685 127.799 146.379 127.799 147.216C127.799 148.053 127.858 148.747 127.975 149.296C128.098 149.845 128.261 150.283 128.463 150.608C128.666 150.933 128.898 151.163 129.159 151.296C129.426 151.424 129.701 151.488 129.983 151.488C130.271 151.488 130.549 151.424 130.815 151.296C131.082 151.163 131.317 150.933 131.519 150.608C131.727 150.283 131.893 149.845 132.015 149.296C132.138 148.747 132.199 148.053 132.199 147.216ZM143.521 147.216C143.521 148.224 143.411 149.101 143.193 149.848C142.979 150.589 142.681 151.203 142.297 151.688C141.918 152.173 141.467 152.536 140.945 152.776C140.427 153.011 139.867 153.128 139.265 153.128C138.662 153.128 138.102 153.011 137.585 152.776C137.073 152.536 136.627 152.173 136.249 151.688C135.87 151.203 135.574 150.589 135.361 149.848C135.147 149.101 135.041 148.224 135.041 147.216C135.041 146.203 135.147 145.325 135.361 144.584C135.574 143.843 135.87 143.229 136.249 142.744C136.627 142.259 137.073 141.899 137.585 141.664C138.102 141.424 138.662 141.304 139.265 141.304C139.867 141.304 140.427 141.424 140.945 141.664C141.467 141.899 141.918 142.259 142.297 142.744C142.681 143.229 142.979 143.843 143.193 144.584C143.411 145.325 143.521 146.203 143.521 147.216ZM141.481 147.216C141.481 146.379 141.419 145.685 141.297 145.136C141.174 144.587 141.009 144.149 140.801 143.824C140.598 143.499 140.363 143.272 140.097 143.144C139.83 143.011 139.553 142.944 139.265 142.944C138.982 142.944 138.707 143.011 138.441 143.144C138.179 143.272 137.947 143.499 137.745 143.824C137.542 144.149 137.379 144.587 137.257 145.136C137.139 145.685 137.081 146.379 137.081 147.216C137.081 148.053 137.139 148.747 137.257 149.296C137.379 149.845 137.542 150.283 137.745 150.608C137.947 150.933 138.179 151.163 138.441 151.296C138.707 151.424 138.982 151.488 139.265 151.488C139.553 151.488 139.83 151.424 140.097 151.296C140.363 151.163 140.598 150.933 140.801 150.608C141.009 150.283 141.174 149.845 141.297 149.296C141.419 148.747 141.481 148.053 141.481 147.216Z" fill="#161A41" fill-opacity="0.3"/>
</svg>
