<svg width="635" height="185" viewBox="0 0 635 185" fill="none" xmlns="http://www.w3.org/2000/svg">
<path d="M0 46.453L7.54062 54.1517C15.1253 61.5625 30.4271 77.3915 45.4201 88.6876C60.4573 100.415 75.4062 107.61 90.8403 92.501C105.833 77.3915 120.826 38.5385 136.26 38.7544C151.209 38.5385 166.247 77.3915 181.24 88.6876C196.541 100.415 211.667 84.5865 226.66 92.501C241.917 100.415 257.087 130.634 272.08 119.338C287.249 107.61 302.507 54.3675 317.5 57.965C332.625 61.5625 347.927 89.6428 362.92 120.078C377.957 150.8 392.906 150.8 408.34 131.59C425.429 113.201 433.773 106.008 452.149 95.8807C471.535 86.5866 483.747 100.415 498.74 84.8023C514.041 69.477 529.167 23.429 544.16 15.7304C559.417 8.31953 574.587 38.5385 589.58 42.6397C604.749 46.453 620.007 23.429 627.503 11.917L635 0.405029V184.597H627.459C619.875 184.597 604.573 184.597 589.58 184.597C574.543 184.597 559.594 184.597 544.16 184.597C529.167 184.597 514.174 184.597 498.74 184.597C483.791 184.597 468.753 184.597 453.76 184.597C438.459 184.597 423.333 184.597 408.34 184.597C393.083 184.597 377.913 184.597 362.92 184.597C347.751 184.597 332.493 184.597 317.5 184.597C302.375 184.597 287.073 184.597 272.08 184.597C257.043 184.597 242.094 184.597 226.66 184.597C211.667 184.597 196.674 184.597 181.24 184.597C166.291 184.597 151.253 184.597 136.26 184.597C120.959 184.597 105.833 184.597 90.8403 184.597C75.5826 184.597 60.4132 184.597 45.4201 184.597C30.2507 184.597 14.9931 184.597 7.49653 184.597H0V46.453Z" fill="url(#paint0_linear_1_438)"/>
<defs>
<linearGradient id="paint0_linear_1_438" x1="-6.65726" y1="9.31753" x2="635" y2="7.72862" gradientUnits="userSpaceOnUse">
<stop stop-color="#5EC3FF" stop-opacity="0.04"/>
<stop offset="1" stop-color="#FD5DEF" stop-opacity="0.04"/>
</linearGradient>
</defs>
</svg>
