<svg width="19" height="18" viewBox="0 0 19 18" fill="none" xmlns="http://www.w3.org/2000/svg">
<g id="Icon/search-normal">
<path id="Vector" d="M8.74756 16.3125C4.51006 16.3125 1.06006 12.8625 1.06006 8.625C1.06006 4.3875 4.51006 0.9375 8.74756 0.9375C12.9851 0.9375 16.4351 4.3875 16.4351 8.625C16.4351 12.8625 12.9851 16.3125 8.74756 16.3125ZM8.74756 2.0625C5.12506 2.0625 2.18506 5.01 2.18506 8.625C2.18506 12.24 5.12506 15.1875 8.74756 15.1875C12.3701 15.1875 15.3101 12.24 15.3101 8.625C15.3101 5.01 12.3701 2.0625 8.74756 2.0625Z" fill="#5D5B73"/>
<path id="Vector_2" d="M16.6224 17.0626C16.4799 17.0626 16.3374 17.0101 16.2249 16.8976L14.7249 15.3976C14.5074 15.1801 14.5074 14.8201 14.7249 14.6026C14.9424 14.3851 15.3024 14.3851 15.5199 14.6026L17.0199 16.1026C17.2374 16.3201 17.2374 16.6801 17.0199 16.8976C16.9074 17.0101 16.7649 17.0626 16.6224 17.0626Z" fill="#5D5B73"/>
</g>
</svg>
