<svg width="647" height="164" viewBox="0 0 647 164" fill="none" xmlns="http://www.w3.org/2000/svg">
<g filter="url(#filter0_d_1_439)">
<path d="M6 50.5681L13.5406 58.6203C21.1253 66.3716 36.4271 82.9276 51.4201 94.7426C66.4573 107.009 81.4062 114.535 96.8403 98.7311C111.833 82.9276 126.826 42.29 142.26 42.5158C157.209 42.29 172.247 82.9276 187.24 94.7426C202.541 107.009 217.667 90.4531 232.66 98.7311C247.917 107.009 263.087 138.616 278.08 126.801C293.249 114.535 308.507 58.8461 323.5 62.6088C338.625 66.3716 353.927 95.7416 368.92 127.574C383.957 159.708 398.906 159.708 414.34 139.615C431.429 120.382 439.773 112.859 458.149 102.266C477.535 92.545 489.746 107.009 504.74 90.6788C520.041 74.6496 535.167 26.4866 550.16 18.4343C565.417 10.6831 580.587 42.29 595.58 46.5796C610.749 50.5681 626.007 26.4865 633.503 14.4458L641 2.40503" stroke="url(#paint0_linear_1_439)" stroke-width="4" stroke-linecap="round"/>
</g>
<defs>
<filter id="filter0_d_1_439" x="0" y="0.404785" width="647" height="163.041" filterUnits="userSpaceOnUse" color-interpolation-filters="sRGB">
<feFlood flood-opacity="0" result="BackgroundImageFix"/>
<feColorMatrix in="SourceAlpha" type="matrix" values="0 0 0 0 0 0 0 0 0 0 0 0 0 0 0 0 0 0 127 0" result="hardAlpha"/>
<feOffset dy="4"/>
<feGaussianBlur stdDeviation="2"/>
<feColorMatrix type="matrix" values="0 0 0 0 0.376471 0 0 0 0 0.356863 0 0 0 0 1 0 0 0 0.17 0"/>
<feBlend mode="normal" in2="BackgroundImageFix" result="effect1_dropShadow_1_439"/>
<feBlend mode="normal" in="SourceGraphic" in2="effect1_dropShadow_1_439" result="shape"/>
</filter>
<linearGradient id="paint0_linear_1_439" x1="-3.21774" y1="2.40503" x2="650.218" y2="2.40503" gradientUnits="userSpaceOnUse">
<stop stop-color="#FF8548"/>
<stop offset="1" stop-color="#FF5BEF"/>
</linearGradient>
</defs>
</svg>
