<svg width="25" height="21" viewBox="0 0 25 21" fill="none" xmlns="http://www.w3.org/2000/svg">
<path d="M15.1525 0H9.11043C8.05065 0 7.1875 0.891687 7.1875 1.98923V5.21048C7.1875 6.30789 8.05065 7.19971 9.11043 7.19971H15.1525C16.2123 7.19971 17.0754 6.30789 17.0754 5.21048V1.98923C17.0754 0.891687 16.2123 0 15.1525 0ZM15.7986 5.21048C15.7986 5.5798 15.5074 5.8806 15.1525 5.8806H9.11043C8.75547 5.8806 8.46435 5.5798 8.46435 5.21048V1.98923C8.46435 1.61977 8.75547 1.31911 9.11043 1.31911H15.1525C15.5074 1.31911 15.7986 1.61977 15.7986 1.98923V5.21048Z" fill="#5D5B73"/>
<path d="M7.96498 13.8003H1.92548C0.863151 13.8003 0 14.6921 0 15.7895V19.0108C0 20.1083 0.863151 21 1.92548 21H7.96498C9.02477 21 9.88791 20.1083 9.88791 19.0108V15.7895C9.88791 14.6921 9.02477 13.8003 7.96498 13.8003ZM8.61106 19.0108C8.61106 19.3802 8.32251 19.6809 7.96498 19.6809H1.92548C1.56797 19.6809 1.27685 19.3802 1.27685 19.0108V15.7895C1.27685 15.4202 1.56797 15.1194 1.92548 15.1194H7.96498C8.32251 15.1194 8.61106 15.4202 8.61106 15.7895V19.0108Z" fill="#5D5B73"/>
<path d="M22.3345 13.8003H16.295C15.2352 13.8003 14.3721 14.6921 14.3721 15.7895V19.0108C14.3721 20.1083 15.2352 21 16.295 21H22.3345C23.3968 21 24.26 20.1083 24.26 19.0108V15.7895C24.26 14.6921 23.3968 13.8003 22.3345 13.8003ZM22.9831 19.0108C22.9831 19.3802 22.692 19.6809 22.3345 19.6809H16.295C15.9375 19.6809 15.6489 19.3802 15.6489 19.0108V15.7895C15.6489 15.4202 15.9375 15.1194 16.295 15.1194H22.3345C22.692 15.1194 22.9831 15.4202 22.9831 15.7895V19.0108Z" fill="#5D5B73"/>
<path d="M19.9537 12.4102V14.46C19.9537 14.8242 19.6677 15.1196 19.3153 15.1196C18.9629 15.1196 18.6769 14.8242 18.6769 14.46V12.4102C18.6769 12.0435 18.3858 11.7427 18.0283 11.7427H6.23018C5.87266 11.7427 5.58154 12.0435 5.58154 12.4102V14.46C5.58154 14.8242 5.29552 15.1196 4.94311 15.1196C4.5907 15.1196 4.30469 14.8242 4.30469 14.46V12.4102C4.30469 11.3153 5.16784 10.4236 6.23018 10.4236H18.0283C19.0906 10.4236 19.9537 11.3153 19.9537 12.4102Z" fill="#5D5B73"/>
<path d="M12.769 6.54017V11.0831C12.769 11.4472 12.483 11.7427 12.1306 11.7427C11.7782 11.7427 11.4922 11.4472 11.4922 11.0831V6.54017C11.4922 6.176 11.7782 5.88062 12.1306 5.88062C12.483 5.88062 12.769 6.176 12.769 6.54017Z" fill="#5D5B73"/>
</svg>
